M48
METRIC,LZ,000.000
;FILE_FORMAT=3:3
;TYPE=PLATED
;Layer: Drill PTH
;EasyEDA v6.4.19.5, 2021-05-22T19:54:24+02:00
;a9b393c6b906431c8adc5fb22f429070,c38686c9fe6447858fcbf2546f174441,10
;Gerber Generator version 0.2
;Holesize 1 = 0.800 mm
T01C0.800
;Holesize 2 = 0.900 mm
T02C0.900
;Holesize 3 = 1.000 mm
T03C1.000
;Holesize 4 = 1.016 mm
T04C1.016
;Holesize 5 = 1.200 mm
T05C1.200
%
G05
G90
T01
X046609Y018288
X045339Y018288
X044069Y018288
X061849Y018288
X060579Y018288
X059309Y018288
X032004Y018288
X030734Y018288
X029464Y018288
T02
X026289Y021844
X026289Y011684
X040767Y021844
X040767Y011684
X055753Y021717
X055753Y011557
X050165Y021844
X050165Y011684
X065278Y021717
X065278Y011557
X035306Y021844
X035306Y011684
T03
X005207Y016157
X005207Y019657
T04
X058547Y043307
X056007Y043307
X053467Y043307
X050927Y043307
X048387Y043307
X045847Y043307
X043307Y043307
X040767Y043307
X038227Y043307
X035687Y043307
X033147Y043307
X030607Y043307
X030607Y028067
X033147Y028067
X035687Y028067
X038227Y028067
X040767Y028067
X043307Y028067
X045847Y028067
X048387Y028067
X050927Y028067
X053467Y028067
X056007Y028067
X058547Y028067
X036805Y030937
X039345Y030937
X049809Y030937
X047269Y030937
X061087Y042037
X061087Y039497
X061087Y036957
X061087Y034417
X061087Y031877
X061087Y029337
T05
X015367Y045339
X012827Y045339
X010287Y045339
X012830Y020320
X012827Y022860
X015367Y020320
X015367Y022860
X017907Y020320
X017907Y022860
X020447Y020320
X020447Y022860
X007747Y042799
X007747Y045339
X044069Y011684
X046609Y011684
X059436Y011557
X061976Y011557
X029464Y011684
X032004Y011684
X004572Y033147
X004572Y035687
X004572Y024765
X004572Y027305
M30
