G04 Layer: TopSilkLayer*
G04 EasyEDA v6.4.19.5, 2021-05-22T19:54:24+02:00*
G04 a9b393c6b906431c8adc5fb22f429070,c38686c9fe6447858fcbf2546f174441,10*
G04 Gerber Generator version 0.2*
G04 Scale: 100 percent, Rotated: No, Reflected: No *
G04 Dimensions in millimeters *
G04 leading zeros omitted , absolute positions ,4 integer and 5 decimal *
%FSLAX45Y45*%
%MOMM*%

%ADD10C,0.2540*%
%ADD20C,0.2032*%
%ADD21C,0.2030*%
%ADD22C,0.1524*%

%LPD*%
G36*
X6577126Y4756099D02*
G01*
X6563918Y4755946D01*
X6558025Y4755388D01*
X6551625Y4754067D01*
X6545529Y4752136D01*
X6535928Y4747412D01*
X6531051Y4745278D01*
X6526479Y4743653D01*
X6522770Y4742738D01*
X6518300Y4740706D01*
X6511747Y4735931D01*
X6503974Y4729175D01*
X6495897Y4721098D01*
X6488125Y4712919D01*
X6482181Y4707077D01*
X6477812Y4703419D01*
X6474612Y4701997D01*
X6472275Y4702657D01*
X6470497Y4705502D01*
X6468973Y4710379D01*
X6463741Y4733950D01*
X6458610Y4730800D01*
X6456629Y4728514D01*
X6455003Y4724552D01*
X6453936Y4719523D01*
X6453530Y4713986D01*
X6453530Y4700270D01*
X6425844Y4718405D01*
X6407912Y4711547D01*
X6414668Y4694021D01*
X6369304Y4701641D01*
X6388404Y4664760D01*
X6388181Y4656683D01*
X6406591Y4656683D01*
X6414770Y4661865D01*
X6422186Y4665878D01*
X6427114Y4666437D01*
X6430416Y4663287D01*
X6432905Y4656074D01*
X6435801Y4644948D01*
X6429908Y4647946D01*
X6422085Y4651095D01*
X6406591Y4656683D01*
X6388181Y4656683D01*
X6387438Y4629810D01*
X6433413Y4629810D01*
X6433515Y4631842D01*
X6434683Y4635093D01*
X6442913Y4650790D01*
X6436664Y4660900D01*
X6447536Y4667554D01*
X6469583Y4653788D01*
X6490817Y4673041D01*
X6504279Y4672990D01*
X6504838Y4675428D01*
X6506057Y4677918D01*
X6509664Y4682642D01*
X6512001Y4683607D01*
X6512559Y4681067D01*
X6510985Y4675276D01*
X6509512Y4672177D01*
X6507886Y4670044D01*
X6506362Y4669028D01*
X6505041Y4669383D01*
X6504330Y4670856D01*
X6504279Y4672990D01*
X6490859Y4672990D01*
X6504990Y4655972D01*
X6519570Y4668012D01*
X6522974Y4703318D01*
X6537706Y4700270D01*
X6531102Y4710887D01*
X6548475Y4722977D01*
X6555638Y4727651D01*
X6557009Y4728311D01*
X6557162Y4726584D01*
X6556095Y4714697D01*
X6552082Y4683861D01*
X6559143Y4683861D01*
X6562496Y4684623D01*
X6566357Y4686706D01*
X6570319Y4689805D01*
X6573875Y4693615D01*
X6581597Y4703318D01*
X6580530Y4690973D01*
X6580428Y4681372D01*
X6581292Y4667199D01*
X6598818Y4667199D01*
X6628638Y4636922D01*
X6634784Y4630216D01*
X6639001Y4625086D01*
X6641287Y4621479D01*
X6641693Y4619498D01*
X6640220Y4618990D01*
X6636867Y4620006D01*
X6620865Y4628337D01*
X6614109Y4617415D01*
X6620103Y4606188D01*
X6622643Y4601006D01*
X6623710Y4597552D01*
X6623253Y4595876D01*
X6621221Y4595977D01*
X6617614Y4597857D01*
X6612280Y4601514D01*
X6605270Y4607052D01*
X6587286Y4621987D01*
X6579108Y4628134D01*
X6572859Y4632350D01*
X6569354Y4633874D01*
X6564985Y4633874D01*
X6570675Y4619294D01*
X6576466Y4606696D01*
X6586778Y4586630D01*
X6586829Y4510176D01*
X6562953Y4471466D01*
X6525666Y4455922D01*
X6511798Y4459376D01*
X6506413Y4461103D01*
X6502044Y4463186D01*
X6499047Y4465370D01*
X6497116Y4469485D01*
X6494830Y4471670D01*
X6491478Y4473702D01*
X6487363Y4475378D01*
X6476796Y4478731D01*
X6464452Y4509617D01*
X6461912Y4516424D01*
X6460337Y4521403D01*
X6459575Y4524756D01*
X6459728Y4526584D01*
X6460744Y4527194D01*
X6462572Y4526635D01*
X6471361Y4521352D01*
X6463893Y4544974D01*
X6477457Y4544974D01*
X6461048Y4564430D01*
X6459982Y4581093D01*
X6460032Y4588713D01*
X6460998Y4597095D01*
X6462674Y4605274D01*
X6464909Y4612233D01*
X6470853Y4626660D01*
X6503517Y4625543D01*
X6503517Y4615840D01*
X6522008Y4631080D01*
X6524345Y4624120D01*
X6526326Y4621072D01*
X6529527Y4619498D01*
X6533692Y4619193D01*
X6538518Y4620056D01*
X6543802Y4621987D01*
X6549186Y4624730D01*
X6554520Y4628184D01*
X6559448Y4632198D01*
X6563766Y4636566D01*
X6567170Y4641240D01*
X6569405Y4645964D01*
X6570167Y4650638D01*
X6570167Y4656836D01*
X6557670Y4652924D01*
X6552590Y4650994D01*
X6547866Y4648657D01*
X6544106Y4646168D01*
X6541820Y4643831D01*
X6538468Y4638598D01*
X6499250Y4645964D01*
X6491732Y4633823D01*
X6470294Y4645304D01*
X6446621Y4633163D01*
X6441084Y4630623D01*
X6437122Y4629251D01*
X6434582Y4628946D01*
X6433413Y4629810D01*
X6387438Y4629810D01*
X6386474Y4594961D01*
X6396380Y4595012D01*
X6401714Y4595926D01*
X6408928Y4598365D01*
X6417005Y4602022D01*
X6425133Y4606493D01*
X6443929Y4617974D01*
X6436664Y4553305D01*
X6446774Y4499356D01*
X6470700Y4466945D01*
X6466433Y4460138D01*
X6465366Y4458055D01*
X6462471Y4450130D01*
X6460033Y4442206D01*
X6466636Y4442206D01*
X6469024Y4449165D01*
X6470497Y4452670D01*
X6472275Y4454753D01*
X6474358Y4455312D01*
X6476949Y4454144D01*
X6480200Y4451248D01*
X6484213Y4446473D01*
X6489154Y4439818D01*
X6503517Y4439818D01*
X6503517Y4446168D01*
X6520180Y4439767D01*
X6520180Y4451807D01*
X6542379Y4446016D01*
X6545529Y4451045D01*
X6549034Y4454347D01*
X6553555Y4455972D01*
X6557416Y4455668D01*
X6559092Y4453178D01*
X6557822Y4449521D01*
X6554419Y4443425D01*
X6549593Y4435754D01*
X6543903Y4427474D01*
X6538010Y4419498D01*
X6532575Y4412640D01*
X6528257Y4407865D01*
X6525666Y4406087D01*
X6523126Y4407204D01*
X6519926Y4410202D01*
X6516268Y4414570D01*
X6512559Y4419854D01*
X6509105Y4425543D01*
X6506209Y4431080D01*
X6504228Y4436008D01*
X6503517Y4439818D01*
X6489192Y4439767D01*
X6502044Y4421327D01*
X6508445Y4413402D01*
X6513626Y4408068D01*
X6516878Y4406087D01*
X6521907Y4406087D01*
X6512734Y4395978D01*
X6531864Y4395978D01*
X6549237Y4422698D01*
X6553250Y4428286D01*
X6556044Y4431588D01*
X6557873Y4432554D01*
X6558737Y4431182D01*
X6558686Y4427474D01*
X6557924Y4421428D01*
X6553555Y4398721D01*
X6551015Y4391863D01*
X6547205Y4390440D01*
X6540703Y4392574D01*
X6531864Y4395978D01*
X6512734Y4395978D01*
X6501993Y4384090D01*
X6466636Y4442206D01*
X6460033Y4442206D01*
X6457035Y4431741D01*
X6453225Y4417212D01*
X6444284Y4381093D01*
X6377330Y4381144D01*
X6351016Y4404715D01*
X6330442Y4422343D01*
X6321196Y4429861D01*
X6300724Y4445660D01*
X6307683Y4448556D01*
X6310376Y4450537D01*
X6311900Y4453534D01*
X6312306Y4457293D01*
X6311798Y4461611D01*
X6310477Y4466285D01*
X6308394Y4471060D01*
X6305753Y4475734D01*
X6302552Y4480052D01*
X6299047Y4483811D01*
X6295186Y4486757D01*
X6291224Y4488738D01*
X6287211Y4489399D01*
X6281013Y4489399D01*
X6269736Y4459732D01*
X6270383Y4458055D01*
X6282131Y4458055D01*
X6282131Y4462119D01*
X6284772Y4469739D01*
X6288227Y4478782D01*
X6294475Y4476699D01*
X6297066Y4475175D01*
X6299454Y4472482D01*
X6301333Y4469130D01*
X6302552Y4465370D01*
X6304330Y4456074D01*
X6292799Y4456074D01*
X6285484Y4456379D01*
X6282131Y4458055D01*
X6270383Y4458055D01*
X6272580Y4452366D01*
X6274308Y4449470D01*
X6276898Y4447133D01*
X6280048Y4445558D01*
X6283350Y4445000D01*
X6287668Y4443933D01*
X6293612Y4441037D01*
X6300317Y4436770D01*
X6307124Y4431538D01*
X6376416Y4372762D01*
X6439611Y4372762D01*
X6440459Y4329531D01*
X6452666Y4329531D01*
X6464452Y4322216D01*
X6458102Y4353915D01*
X6475730Y4368546D01*
X6474460Y4403293D01*
X6471767Y4392218D01*
X6470345Y4387494D01*
X6468414Y4382820D01*
X6466230Y4378756D01*
X6464096Y4375810D01*
X6459067Y4370527D01*
X6459067Y4376826D01*
X6459524Y4380534D01*
X6460794Y4385868D01*
X6462674Y4392168D01*
X6470904Y4414316D01*
X6481572Y4400448D01*
X6485991Y4394352D01*
X6490055Y4387850D01*
X6493357Y4381804D01*
X6495491Y4376928D01*
X6499250Y4370070D01*
X6503771Y4367479D01*
X6507530Y4369257D01*
X6510426Y4381906D01*
X6513474Y4383684D01*
X6516725Y4380992D01*
X6517592Y4377740D01*
X6525768Y4377740D01*
X6525768Y4383887D01*
X6542430Y4383887D01*
X6542430Y4375556D01*
X6542633Y4371441D01*
X6543192Y4368647D01*
X6544106Y4367022D01*
X6545376Y4366666D01*
X6546850Y4367377D01*
X6548577Y4369206D01*
X6550507Y4372102D01*
X6552641Y4376013D01*
X6557162Y4386529D01*
X6561836Y4400499D01*
X6571945Y4433824D01*
X6580682Y4421378D01*
X6585000Y4415688D01*
X6590436Y4409338D01*
X6596227Y4403090D01*
X6604558Y4394860D01*
X6607759Y4390948D01*
X6614820Y4380788D01*
X6622389Y4368190D01*
X6630060Y4354169D01*
X6637223Y4339590D01*
X6643471Y4325467D01*
X6646113Y4318863D01*
X6650024Y4307179D01*
X6651244Y4302302D01*
X6654495Y4286046D01*
X6647078Y4279950D01*
X6643979Y4277868D01*
X6639661Y4275683D01*
X6634378Y4273499D01*
X6621475Y4269079D01*
X6606692Y4265015D01*
X6591553Y4261815D01*
X6584289Y4260596D01*
X6577482Y4259732D01*
X6571284Y4259275D01*
X6552946Y4258462D01*
X6548424Y4264202D01*
X6547713Y4265625D01*
X6545732Y4271924D01*
X6540246Y4294936D01*
X6534048Y4325061D01*
X6528714Y4354372D01*
X6526885Y4366260D01*
X6525869Y4374896D01*
X6525768Y4377740D01*
X6517592Y4377740D01*
X6518554Y4374134D01*
X6520942Y4356100D01*
X6525564Y4328820D01*
X6531102Y4299153D01*
X6536283Y4273905D01*
X6538366Y4265117D01*
X6539890Y4259986D01*
X6543802Y4250029D01*
X6461861Y4253331D01*
X6461048Y4273753D01*
X6460236Y4282948D01*
X6459016Y4293260D01*
X6457492Y4303420D01*
X6452666Y4329531D01*
X6440459Y4329531D01*
X6441795Y4258868D01*
X6456984Y4203293D01*
X6570167Y4200144D01*
X6570167Y4226915D01*
X6604253Y4233722D01*
X6597396Y4244848D01*
X6612839Y4238904D01*
X6626555Y4255414D01*
X6641541Y4249674D01*
X6647738Y4261205D01*
X6650532Y4265676D01*
X6653530Y4269384D01*
X6656425Y4271822D01*
X6658813Y4272737D01*
X6663740Y4272737D01*
X6671462Y4200550D01*
X6681317Y4200550D01*
X6681317Y4215993D01*
X6680657Y4224375D01*
X6678980Y4235805D01*
X6676491Y4248759D01*
X6670598Y4273804D01*
X6668668Y4284370D01*
X6667804Y4292193D01*
X6668160Y4296206D01*
X6668719Y4298391D01*
X6668262Y4301236D01*
X6666941Y4304334D01*
X6664909Y4307433D01*
X6662877Y4310075D01*
X6657746Y4318304D01*
X6651548Y4329277D01*
X6644995Y4341876D01*
X6638594Y4354880D01*
X6632905Y4367123D01*
X6627012Y4381550D01*
X6626098Y4384700D01*
X6625742Y4386783D01*
X6625742Y4394098D01*
X6649008Y4401972D01*
X6659067Y4406595D01*
X6670090Y4412538D01*
X6680758Y4419142D01*
X6707276Y4438192D01*
X6731508Y4489805D01*
X6758381Y4500016D01*
X6770573Y4522774D01*
X6766153Y4522774D01*
X6763918Y4521860D01*
X6761022Y4519472D01*
X6757873Y4515967D01*
X6754825Y4511649D01*
X6747865Y4500524D01*
X6739585Y4500524D01*
X6733641Y4501642D01*
X6731762Y4505299D01*
X6733946Y4511852D01*
X6740194Y4521911D01*
X6749135Y4534611D01*
X6764629Y4528667D01*
X6764629Y4534052D01*
X6764020Y4536389D01*
X6762343Y4538014D01*
X6759651Y4538929D01*
X6756044Y4539183D01*
X6751675Y4538726D01*
X6746646Y4537608D01*
X6741007Y4535779D01*
X6721398Y4527092D01*
X6709918Y4501896D01*
X6721398Y4490466D01*
X6708800Y4452366D01*
X6693662Y4437989D01*
X6690004Y4434840D01*
X6685330Y4431334D01*
X6673748Y4423816D01*
X6667246Y4420006D01*
X6653733Y4412894D01*
X6615684Y4396079D01*
X6599174Y4414164D01*
X6592519Y4422495D01*
X6585610Y4431995D01*
X6579209Y4441444D01*
X6564426Y4466082D01*
X6593484Y4500626D01*
X6598970Y4564430D01*
X6588099Y4611420D01*
X6627622Y4578807D01*
X6636410Y4584242D01*
X6625996Y4611624D01*
X6631635Y4611624D01*
X6634022Y4611014D01*
X6636512Y4609185D01*
X6638696Y4606544D01*
X6640423Y4603292D01*
X6643624Y4594961D01*
X6656578Y4594961D01*
X6662318Y4595368D01*
X6666941Y4596434D01*
X6670497Y4598111D01*
X6672884Y4600397D01*
X6674256Y4603140D01*
X6674459Y4606340D01*
X6673646Y4609896D01*
X6671716Y4613808D01*
X6668719Y4617923D01*
X6664655Y4622241D01*
X6659524Y4626610D01*
X6653377Y4631080D01*
X6636664Y4642205D01*
X6655816Y4647742D01*
X6663283Y4650333D01*
X6669582Y4653330D01*
X6673951Y4656277D01*
X6675729Y4658868D01*
X6676542Y4664405D01*
X6620205Y4681067D01*
X6656324Y4702048D01*
X6650228Y4704232D01*
X6645859Y4704232D01*
X6638391Y4702556D01*
X6628942Y4699558D01*
X6618478Y4695444D01*
X6592824Y4684420D01*
X6595211Y4725517D01*
X6570878Y4724704D01*
G37*
G36*
X6523939Y4595063D02*
G01*
X6543802Y4573117D01*
X6558940Y4581296D01*
X6561785Y4583226D01*
X6563106Y4584801D01*
X6562801Y4586122D01*
X6560718Y4587341D01*
X6556806Y4588560D01*
X6542887Y4591456D01*
G37*
G36*
X6499352Y4594402D02*
G01*
X6492544Y4592929D01*
X6481927Y4590186D01*
X6468719Y4586427D01*
X6486855Y4571390D01*
X6495186Y4578299D01*
X6500520Y4584039D01*
X6503212Y4589424D01*
X6502958Y4593336D01*
G37*
G36*
X6511086Y4552746D02*
G01*
X6502400Y4538675D01*
X6509054Y4532020D01*
X6512458Y4535373D01*
X6513576Y4537252D01*
X6514134Y4539792D01*
X6514084Y4542739D01*
X6513474Y4545736D01*
G37*
G36*
X6549237Y4536643D02*
G01*
X6548628Y4529683D01*
X6547510Y4526127D01*
X6544919Y4521555D01*
X6541312Y4516577D01*
X6536994Y4511751D01*
X6526022Y4500778D01*
X6516166Y4504283D01*
X6511391Y4506417D01*
X6505803Y4509770D01*
X6500012Y4513783D01*
X6494780Y4518101D01*
X6483248Y4528413D01*
X6476136Y4521301D01*
X6482334Y4509516D01*
X6485280Y4504385D01*
X6488277Y4500067D01*
X6491478Y4496612D01*
X6494881Y4493920D01*
X6498640Y4491939D01*
X6502857Y4490567D01*
X6507581Y4489805D01*
X6512915Y4489500D01*
X6525107Y4489399D01*
X6554774Y4514951D01*
G37*
G36*
X6545529Y4356100D02*
G01*
X6544309Y4355642D01*
X6542785Y4354474D01*
X6541160Y4352696D01*
X6536181Y4344974D01*
X6542074Y4344974D01*
X6544360Y4345432D01*
X6546240Y4346600D01*
X6547510Y4348378D01*
X6547967Y4350512D01*
X6547764Y4352696D01*
X6547256Y4354474D01*
X6546443Y4355642D01*
G37*
G36*
X6547967Y4333849D02*
G01*
X6545783Y4333443D01*
X6544056Y4332224D01*
X6542836Y4330496D01*
X6542430Y4328312D01*
X6542836Y4326178D01*
X6544056Y4324400D01*
X6545783Y4323181D01*
X6547967Y4322775D01*
X6550101Y4323181D01*
X6551879Y4324400D01*
X6553098Y4326178D01*
X6553504Y4328312D01*
X6553098Y4330496D01*
X6551879Y4332224D01*
X6550101Y4333443D01*
G37*
G36*
X6553504Y4311650D02*
G01*
X6551371Y4311192D01*
X6549593Y4310024D01*
X6548424Y4308246D01*
X6547967Y4306112D01*
X6548424Y4303928D01*
X6549593Y4302150D01*
X6551371Y4300982D01*
X6553504Y4300524D01*
X6555689Y4300982D01*
X6557467Y4302150D01*
X6558635Y4303928D01*
X6559092Y4306112D01*
X6558635Y4308246D01*
X6557467Y4310024D01*
X6555689Y4311192D01*
G37*
G36*
X6645706Y4243984D02*
G01*
X6644487Y4243578D01*
X6643065Y4240733D01*
X6641388Y4235500D01*
X6639509Y4227779D01*
X6635750Y4210558D01*
X6647942Y4198315D01*
X6647840Y4230827D01*
X6647383Y4237634D01*
X6646672Y4242003D01*
G37*
G36*
X1588922Y1689963D02*
G01*
X1530858Y1685086D01*
X1525727Y1640230D01*
X1486001Y1622145D01*
X1437132Y1651000D01*
X1396695Y1610614D01*
X1428851Y1565097D01*
X1415897Y1530502D01*
X1399387Y1525270D01*
X1393393Y1523593D01*
X1387043Y1522222D01*
X1380388Y1521104D01*
X1373530Y1520342D01*
X1366520Y1519834D01*
X1352346Y1519682D01*
X1345387Y1520088D01*
X1338630Y1520799D01*
X1332128Y1521764D01*
X1326032Y1523034D01*
X1320292Y1524660D01*
X1301800Y1530502D01*
X1288846Y1565097D01*
X1321003Y1610614D01*
X1280464Y1651152D01*
X1261872Y1638096D01*
X1256131Y1634337D01*
X1250543Y1631289D01*
X1245108Y1628851D01*
X1239875Y1627124D01*
X1234795Y1626107D01*
X1229918Y1625701D01*
X1225143Y1626006D01*
X1220520Y1626971D01*
X1216050Y1628648D01*
X1211732Y1630984D01*
X1207516Y1633982D01*
X1203401Y1637690D01*
X1190853Y1650238D01*
X1190853Y1689100D01*
X1126845Y1689100D01*
X1126845Y1650238D01*
X1111351Y1634744D01*
X1108557Y1631696D01*
X1106373Y1628851D01*
X1104900Y1626006D01*
X1104087Y1622958D01*
X1104036Y1619453D01*
X1104646Y1615389D01*
X1106068Y1610410D01*
X1108202Y1604365D01*
X1114806Y1588312D01*
X1135786Y1539494D01*
X1171549Y1546352D01*
X1209497Y1515567D01*
X1209497Y1462582D01*
X1191310Y1447850D01*
X1185672Y1443583D01*
X1180134Y1440129D01*
X1174750Y1437386D01*
X1169466Y1435455D01*
X1164234Y1434236D01*
X1159002Y1433830D01*
X1153820Y1434134D01*
X1148588Y1435252D01*
X1143355Y1437132D01*
X1138021Y1439773D01*
X1132636Y1443126D01*
X1127099Y1447292D01*
X1109573Y1461465D01*
X1098397Y1516075D01*
X1023467Y1546860D01*
X997712Y1521104D01*
X958850Y1521104D01*
X958850Y1457096D01*
X997712Y1457096D01*
X1010259Y1444548D01*
X1013968Y1440535D01*
X1016965Y1436522D01*
X1019302Y1432509D01*
X1020927Y1428445D01*
X1021892Y1424228D01*
X1022197Y1419860D01*
X1021791Y1415338D01*
X1020724Y1410563D01*
X1018946Y1405483D01*
X1016508Y1400098D01*
X1013358Y1394409D01*
X1009548Y1388262D01*
X996289Y1367993D01*
X1036878Y1327454D01*
X1078738Y1354886D01*
X1116838Y1345285D01*
X1131465Y1287119D01*
X1189075Y1287119D01*
X1189228Y1301394D01*
X1190040Y1314754D01*
X1191514Y1326083D01*
X1192530Y1330756D01*
X1193647Y1334465D01*
X1194917Y1337259D01*
X1198422Y1341221D01*
X1203858Y1345438D01*
X1210462Y1349349D01*
X1217523Y1352499D01*
X1234592Y1358849D01*
X1279194Y1325829D01*
X1321003Y1367586D01*
X1288846Y1413103D01*
X1302156Y1448612D01*
X1354836Y1460550D01*
X1359865Y1460855D01*
X1367536Y1460042D01*
X1376883Y1458315D01*
X1386789Y1455877D01*
X1404213Y1451102D01*
X1412494Y1449120D01*
X1413865Y1447800D01*
X1416304Y1444345D01*
X1422958Y1432864D01*
X1431645Y1416659D01*
X1396695Y1367586D01*
X1437386Y1326946D01*
X1482852Y1359103D01*
X1517853Y1345996D01*
X1527403Y1310894D01*
X1528775Y1304950D01*
X1530705Y1293672D01*
X1531518Y1284427D01*
X1531467Y1280972D01*
X1531061Y1278483D01*
X1527657Y1265682D01*
X1519021Y1227023D01*
X1484020Y1217879D01*
X1439265Y1244295D01*
X1399387Y1206804D01*
X1431086Y1162304D01*
X1413103Y1122934D01*
X1385976Y1118514D01*
X1379982Y1117701D01*
X1366164Y1116787D01*
X1351534Y1116787D01*
X1337716Y1117701D01*
X1331722Y1118514D01*
X1304594Y1122934D01*
X1288389Y1158494D01*
X1318717Y1206449D01*
X1278432Y1244295D01*
X1233678Y1217879D01*
X1199388Y1226820D01*
X1193901Y1243939D01*
X1192682Y1248460D01*
X1190802Y1259636D01*
X1189583Y1272844D01*
X1189075Y1287119D01*
X1131465Y1287119D01*
X1131976Y1285087D01*
X1118463Y1233474D01*
X1085799Y1215948D01*
X1066596Y1228547D01*
X1060551Y1232306D01*
X1054912Y1235354D01*
X1049680Y1237691D01*
X1044803Y1239316D01*
X1040231Y1240180D01*
X1035862Y1240332D01*
X1031646Y1239723D01*
X1027582Y1238402D01*
X1023569Y1236319D01*
X1019556Y1233525D01*
X1015492Y1229918D01*
X1011326Y1225651D01*
X997305Y1210157D01*
X1025804Y1161948D01*
X1007719Y1122222D01*
X962863Y1117092D01*
X957986Y1058570D01*
X1006754Y1047851D01*
X1018844Y1027074D01*
X1102868Y1059230D01*
X1102868Y1105103D01*
X1134872Y1137107D01*
X1181709Y1137107D01*
X1203045Y1109776D01*
X1206906Y1104138D01*
X1209954Y1098956D01*
X1212088Y1094130D01*
X1213408Y1089558D01*
X1213815Y1085088D01*
X1213408Y1080668D01*
X1212088Y1076096D01*
X1209954Y1071270D01*
X1206906Y1066088D01*
X1203045Y1060450D01*
X1181709Y1033119D01*
X1134262Y1033119D01*
X1110640Y977442D01*
X1107846Y969975D01*
X1105763Y963574D01*
X1104442Y958138D01*
X1103833Y953465D01*
X1103934Y949401D01*
X1104747Y945743D01*
X1106271Y942340D01*
X1108456Y939037D01*
X1111300Y935634D01*
X1114856Y931976D01*
X1119530Y926084D01*
X1123340Y918971D01*
X1125880Y911453D01*
X1126845Y904544D01*
X1126845Y889101D01*
X1190853Y889101D01*
X1190853Y928725D01*
X1230122Y954430D01*
X1278432Y925880D01*
X1318717Y963777D01*
X1288389Y1011682D01*
X1304747Y1047699D01*
X1358849Y1057808D01*
X1412951Y1047699D01*
X1429308Y1011682D01*
X1398981Y963777D01*
X1439570Y925626D01*
X1459280Y939596D01*
X1465783Y943762D01*
X1471930Y947369D01*
X1476908Y950010D01*
X1486966Y954836D01*
X1526844Y928725D01*
X1526844Y889101D01*
X1590852Y889101D01*
X1590852Y904544D01*
X1591818Y911453D01*
X1594358Y918971D01*
X1598168Y926084D01*
X1602841Y931976D01*
X1606397Y935634D01*
X1609242Y939037D01*
X1611426Y942340D01*
X1612950Y945743D01*
X1613763Y949401D01*
X1613865Y953465D01*
X1613255Y958138D01*
X1611934Y963574D01*
X1609852Y969975D01*
X1607058Y977442D01*
X1583436Y1033119D01*
X1537309Y1033119D01*
X1508861Y1064564D01*
X1508861Y1105611D01*
X1537309Y1137107D01*
X1582826Y1137107D01*
X1614830Y1105103D01*
X1614830Y1060297D01*
X1697329Y1025448D01*
X1706067Y1036319D01*
X1711248Y1040942D01*
X1718716Y1045464D01*
X1727606Y1049426D01*
X1736852Y1052271D01*
X1758848Y1057402D01*
X1758848Y1113485D01*
X1710283Y1123238D01*
X1692757Y1155954D01*
X1721357Y1209090D01*
X1706880Y1225092D01*
X1702460Y1229563D01*
X1698142Y1233271D01*
X1693824Y1236218D01*
X1689506Y1238351D01*
X1685188Y1239774D01*
X1680819Y1240383D01*
X1676450Y1240180D01*
X1672031Y1239266D01*
X1667510Y1237538D01*
X1662938Y1235100D01*
X1658264Y1231849D01*
X1653438Y1227836D01*
X1638807Y1214577D01*
X1601622Y1231493D01*
X1585925Y1285087D01*
X1600860Y1345285D01*
X1638960Y1354886D01*
X1680819Y1327454D01*
X1720494Y1367129D01*
X1694129Y1407414D01*
X1704492Y1448663D01*
X1758848Y1458874D01*
X1758848Y1521104D01*
X1724101Y1521104D01*
X1695196Y1547266D01*
X1619300Y1516075D01*
X1608124Y1461465D01*
X1590598Y1447292D01*
X1585061Y1443126D01*
X1579676Y1439773D01*
X1574342Y1437132D01*
X1569110Y1435252D01*
X1563878Y1434134D01*
X1558696Y1433830D01*
X1553464Y1434236D01*
X1548231Y1435455D01*
X1542948Y1437386D01*
X1537563Y1440129D01*
X1532026Y1443583D01*
X1526387Y1447850D01*
X1508201Y1462582D01*
X1508201Y1515567D01*
X1545590Y1545894D01*
X1584198Y1541119D01*
X1621637Y1629105D01*
X1599387Y1634185D01*
G37*
G36*
X670052Y3199892D02*
G01*
X635762Y3190494D01*
X635762Y3183890D01*
X654304Y3182112D01*
X654304Y3129280D01*
X647344Y3136239D01*
X640181Y3140710D01*
X632764Y3143046D01*
X625094Y3143758D01*
X620064Y3143504D01*
X615188Y3142742D01*
X610514Y3141472D01*
X606094Y3139744D01*
X601929Y3137560D01*
X598017Y3134969D01*
X594360Y3131870D01*
X591058Y3128365D01*
X588060Y3124504D01*
X585368Y3120237D01*
X583082Y3115564D01*
X581152Y3110534D01*
X579628Y3105150D01*
X578510Y3099460D01*
X577850Y3093466D01*
X577616Y3087624D01*
X597154Y3087624D01*
X597458Y3095244D01*
X598322Y3102051D01*
X599694Y3108147D01*
X601522Y3113481D01*
X603859Y3118154D01*
X606552Y3122117D01*
X609600Y3125419D01*
X613003Y3128060D01*
X616661Y3130042D01*
X620572Y3131464D01*
X624636Y3132328D01*
X628904Y3132582D01*
X634542Y3132023D01*
X640537Y3130092D01*
X646988Y3126486D01*
X654050Y3120898D01*
X654050Y3056382D01*
X647801Y3050489D01*
X641705Y3046628D01*
X635457Y3044545D01*
X628650Y3043936D01*
X624230Y3044190D01*
X620064Y3045053D01*
X616102Y3046425D01*
X612444Y3048457D01*
X609142Y3051048D01*
X606145Y3054248D01*
X603504Y3058109D01*
X601319Y3062630D01*
X599541Y3067812D01*
X598220Y3073704D01*
X597408Y3080308D01*
X597154Y3087624D01*
X577616Y3087624D01*
X577951Y3079191D01*
X579120Y3071774D01*
X580898Y3064865D01*
X583387Y3058515D01*
X586536Y3052724D01*
X590245Y3047593D01*
X594563Y3043174D01*
X599389Y3039414D01*
X604723Y3036468D01*
X610514Y3034284D01*
X616712Y3032963D01*
X623316Y3032506D01*
X632866Y3033572D01*
X641146Y3036671D01*
X648258Y3041599D01*
X654558Y3048254D01*
X655828Y3033014D01*
X690372Y3035300D01*
X690372Y3042158D01*
X672338Y3044190D01*
X672338Y3166618D01*
X672846Y3198368D01*
G37*
G36*
X516382Y3143758D02*
G01*
X511200Y3143402D01*
X505917Y3142335D01*
X500684Y3140608D01*
X495503Y3138220D01*
X490423Y3135274D01*
X485495Y3131769D01*
X480872Y3127705D01*
X476504Y3123184D01*
X474472Y3141472D01*
X471424Y3143504D01*
X440182Y3131312D01*
X440182Y3124708D01*
X457962Y3122930D01*
X458470Y3093720D01*
X458216Y3044698D01*
X441706Y3042158D01*
X441706Y3035300D01*
X492759Y3035300D01*
X492759Y3042158D01*
X477520Y3044698D01*
X477012Y3082036D01*
X477012Y3115056D01*
X485393Y3121761D01*
X493166Y3126333D01*
X500634Y3128975D01*
X508000Y3129788D01*
X512572Y3129432D01*
X516483Y3128416D01*
X519684Y3126536D01*
X522224Y3123844D01*
X524154Y3120186D01*
X525526Y3115513D01*
X526288Y3109772D01*
X526542Y3102864D01*
X526288Y3044698D01*
X509778Y3042158D01*
X509778Y3035300D01*
X560832Y3035300D01*
X560832Y3042158D01*
X545338Y3044698D01*
X544830Y3082036D01*
X544830Y3103372D01*
X544372Y3113328D01*
X543052Y3121812D01*
X540867Y3128772D01*
X537768Y3134309D01*
X533755Y3138525D01*
X528878Y3141472D01*
X523087Y3143199D01*
G37*
G36*
X370840Y3143758D02*
G01*
X365150Y3143504D01*
X359765Y3142691D01*
X354685Y3141319D01*
X350062Y3139490D01*
X345795Y3137103D01*
X341985Y3134258D01*
X338683Y3130905D01*
X335940Y3127146D01*
X333705Y3122879D01*
X332079Y3118154D01*
X331063Y3113024D01*
X330722Y3107182D01*
X348234Y3107182D01*
X348640Y3113328D01*
X349808Y3118866D01*
X351739Y3123844D01*
X354330Y3128060D01*
X357632Y3131464D01*
X361543Y3134004D01*
X366014Y3135579D01*
X371094Y3136138D01*
X376072Y3135579D01*
X380441Y3134055D01*
X384200Y3131566D01*
X387400Y3128213D01*
X389890Y3124098D01*
X391718Y3119323D01*
X392836Y3113887D01*
X393192Y3107944D01*
X392785Y3101695D01*
X391668Y3096006D01*
X389788Y3090926D01*
X387197Y3086608D01*
X383946Y3083052D01*
X380034Y3080461D01*
X375462Y3078784D01*
X370332Y3078226D01*
X365455Y3078734D01*
X361086Y3080308D01*
X357327Y3082747D01*
X354126Y3086150D01*
X351586Y3090316D01*
X349758Y3095244D01*
X348640Y3100882D01*
X348234Y3107182D01*
X330722Y3107182D01*
X331012Y3102000D01*
X331927Y3097022D01*
X333349Y3092450D01*
X335330Y3088284D01*
X337769Y3084525D01*
X340664Y3081223D01*
X344017Y3078378D01*
X347726Y3075940D01*
X340614Y3068675D01*
X335889Y3062376D01*
X333298Y3056686D01*
X332486Y3051302D01*
X333451Y3045358D01*
X336296Y3040481D01*
X340868Y3036671D01*
X346964Y3034030D01*
X336956Y3028442D01*
X330250Y3022549D01*
X326542Y3016300D01*
X325889Y3012440D01*
X342646Y3012440D01*
X343204Y3018028D01*
X344830Y3023057D01*
X347675Y3027883D01*
X351790Y3032760D01*
X362712Y3032252D01*
X388366Y3032252D01*
X398576Y3030880D01*
X405434Y3027070D01*
X409244Y3021431D01*
X410464Y3014472D01*
X409854Y3009696D01*
X408025Y3005226D01*
X404926Y3001264D01*
X400659Y2997860D01*
X395224Y2995015D01*
X388620Y2992882D01*
X380796Y2991561D01*
X371856Y2991104D01*
X365556Y2991408D01*
X359918Y2992374D01*
X354888Y2993948D01*
X350672Y2996234D01*
X347268Y2999232D01*
X344728Y3002889D01*
X343204Y3007309D01*
X342646Y3012440D01*
X325889Y3012440D01*
X325374Y3009392D01*
X325678Y3005480D01*
X326542Y3001822D01*
X328066Y2998368D01*
X330200Y2995168D01*
X332994Y2992272D01*
X336397Y2989681D01*
X340563Y2987395D01*
X345338Y2985516D01*
X350875Y2983992D01*
X357124Y2982874D01*
X364134Y2982214D01*
X371856Y2981960D01*
X380542Y2982366D01*
X388518Y2983484D01*
X395732Y2985262D01*
X402234Y2987598D01*
X407924Y2990545D01*
X412902Y2993898D01*
X417118Y2997657D01*
X420573Y3001772D01*
X423265Y3006191D01*
X425196Y3010763D01*
X426313Y3015488D01*
X426720Y3020314D01*
X426161Y3026562D01*
X424535Y3032099D01*
X421792Y3036925D01*
X417931Y3040989D01*
X412953Y3044190D01*
X406806Y3046577D01*
X399440Y3048000D01*
X390906Y3048508D01*
X361442Y3048508D01*
X354482Y3049219D01*
X350113Y3051251D01*
X347878Y3054502D01*
X347218Y3058922D01*
X347573Y3062732D01*
X348742Y3066237D01*
X350672Y3069742D01*
X353314Y3073400D01*
X357428Y3072231D01*
X361696Y3071317D01*
X366166Y3070809D01*
X370840Y3070606D01*
X376529Y3070860D01*
X381914Y3071723D01*
X386943Y3073095D01*
X391617Y3074974D01*
X395884Y3077362D01*
X399643Y3080258D01*
X402996Y3083661D01*
X405739Y3087522D01*
X407974Y3091840D01*
X409600Y3096615D01*
X410616Y3101797D01*
X410972Y3107436D01*
X410565Y3113633D01*
X409397Y3119272D01*
X407568Y3124301D01*
X405130Y3128772D01*
X427735Y3128264D01*
X427735Y3141472D01*
X424434Y3143504D01*
X399034Y3135122D01*
X393344Y3138932D01*
X386638Y3141624D01*
X379120Y3143250D01*
G37*
G36*
X355346Y3895344D02*
G01*
X350774Y3826001D01*
X356362Y3824224D01*
X361746Y3825544D01*
X367131Y3826510D01*
X372465Y3827068D01*
X377698Y3827272D01*
X382879Y3827018D01*
X387705Y3826205D01*
X392176Y3824833D01*
X396290Y3823004D01*
X399948Y3820617D01*
X403250Y3817721D01*
X406044Y3814368D01*
X408381Y3810558D01*
X410260Y3806291D01*
X411632Y3801516D01*
X412445Y3796334D01*
X412750Y3790696D01*
X412496Y3785006D01*
X411784Y3779723D01*
X410565Y3774795D01*
X408838Y3770325D01*
X406654Y3766210D01*
X404063Y3762654D01*
X400964Y3759504D01*
X397459Y3756914D01*
X393446Y3754831D01*
X389077Y3753307D01*
X384200Y3752392D01*
X378968Y3752087D01*
X375412Y3752240D01*
X368452Y3753256D01*
X364998Y3754120D01*
X359156Y3774389D01*
X356768Y3778656D01*
X353568Y3780891D01*
X349250Y3781551D01*
X345846Y3781094D01*
X342900Y3779824D01*
X340512Y3777589D01*
X338836Y3774440D01*
X340918Y3767277D01*
X343966Y3761079D01*
X347878Y3755796D01*
X352704Y3751478D01*
X358343Y3748074D01*
X364845Y3745636D01*
X372160Y3744214D01*
X380238Y3743706D01*
X386029Y3743909D01*
X391515Y3744620D01*
X396748Y3745687D01*
X401675Y3747211D01*
X406247Y3749141D01*
X410565Y3751427D01*
X414477Y3754120D01*
X418084Y3757117D01*
X421284Y3760520D01*
X424129Y3764229D01*
X426567Y3768242D01*
X428599Y3772509D01*
X430225Y3777132D01*
X431342Y3782009D01*
X432054Y3787089D01*
X432308Y3792474D01*
X431901Y3799636D01*
X430682Y3806240D01*
X428751Y3812336D01*
X426110Y3817823D01*
X422757Y3822700D01*
X418795Y3826967D01*
X414223Y3830675D01*
X409041Y3833672D01*
X403352Y3836111D01*
X397205Y3837787D01*
X390601Y3838854D01*
X383540Y3839210D01*
X377596Y3839006D01*
X372008Y3838397D01*
X366522Y3837381D01*
X361188Y3835908D01*
X363982Y3878072D01*
X428243Y3878072D01*
X428243Y3895344D01*
G37*
G36*
X441451Y3851910D02*
G01*
X441451Y3844544D01*
X453898Y3842765D01*
X494030Y3744976D01*
X503174Y3744976D01*
X539496Y3841750D01*
X552196Y3844544D01*
X552196Y3851910D01*
X511048Y3851910D01*
X511048Y3844544D01*
X529336Y3841750D01*
X503428Y3767328D01*
X475234Y3842512D01*
X494538Y3844544D01*
X494538Y3851910D01*
G37*
G36*
X2898140Y1004569D02*
G01*
X2898140Y955040D01*
X2851404Y955040D01*
X2851404Y944371D01*
X2898140Y944371D01*
X2898140Y894080D01*
X2909824Y894080D01*
X2909824Y944371D01*
X2956306Y944371D01*
X2956306Y955040D01*
X2909824Y955040D01*
X2909824Y1004569D01*
G37*
G36*
X3183890Y951484D02*
G01*
X3183890Y938276D01*
X3235706Y938276D01*
X3235706Y951484D01*
G37*
G36*
X4396740Y1004569D02*
G01*
X4396740Y955040D01*
X4350004Y955040D01*
X4350004Y944371D01*
X4396740Y944371D01*
X4396740Y894080D01*
X4408424Y894080D01*
X4408424Y944371D01*
X4454906Y944371D01*
X4454906Y955040D01*
X4408424Y955040D01*
X4408424Y1004569D01*
G37*
G36*
X4644390Y951484D02*
G01*
X4644390Y938276D01*
X4696206Y938276D01*
X4696206Y951484D01*
G37*
G36*
X5946140Y991869D02*
G01*
X5946140Y942340D01*
X5899404Y942340D01*
X5899404Y931671D01*
X5946140Y931671D01*
X5946140Y881380D01*
X5957824Y881380D01*
X5957824Y931671D01*
X6004306Y931671D01*
X6004306Y942340D01*
X5957824Y942340D01*
X5957824Y991869D01*
G37*
G36*
X6193790Y938784D02*
G01*
X6193790Y925576D01*
X6245606Y925576D01*
X6245606Y938784D01*
G37*
G36*
X4451350Y1409700D02*
G01*
X4445914Y1409344D01*
X4440783Y1408379D01*
X4436008Y1406804D01*
X4431588Y1404670D01*
X4427626Y1401927D01*
X4424070Y1398727D01*
X4420971Y1395069D01*
X4418330Y1390954D01*
X4416298Y1386433D01*
X4414774Y1381556D01*
X4413808Y1376375D01*
X4413504Y1370838D01*
X4413808Y1365250D01*
X4414723Y1360017D01*
X4416247Y1355140D01*
X4418279Y1350619D01*
X4420870Y1346504D01*
X4423918Y1342847D01*
X4427423Y1339646D01*
X4431436Y1336954D01*
X4435805Y1334820D01*
X4440529Y1333246D01*
X4445660Y1332280D01*
X4451096Y1331976D01*
X4457496Y1332382D01*
X4463542Y1333601D01*
X4469384Y1335633D01*
X4475226Y1338326D01*
X4475480Y1364488D01*
X4482084Y1364996D01*
X4482084Y1369060D01*
X4453128Y1369060D01*
X4453128Y1364996D01*
X4465066Y1364234D01*
X4465320Y1339088D01*
X4462170Y1338072D01*
X4459071Y1337360D01*
X4455922Y1336954D01*
X4452620Y1336802D01*
X4446524Y1337411D01*
X4441139Y1339138D01*
X4436364Y1341932D01*
X4432401Y1345844D01*
X4429201Y1350670D01*
X4426864Y1356512D01*
X4425442Y1363268D01*
X4424934Y1370838D01*
X4425442Y1378508D01*
X4426966Y1385265D01*
X4429404Y1391107D01*
X4432655Y1395933D01*
X4436668Y1399794D01*
X4441342Y1402588D01*
X4446574Y1404315D01*
X4452366Y1404874D01*
X4455871Y1404670D01*
X4459122Y1404061D01*
X4462170Y1403045D01*
X4465066Y1401572D01*
X4467860Y1387856D01*
X4473702Y1387856D01*
X4473448Y1404112D01*
X4468723Y1406601D01*
X4463643Y1408328D01*
X4457903Y1409344D01*
G37*
G36*
X4713224Y1409446D02*
G01*
X4705248Y1408379D01*
X4698441Y1405229D01*
X4693412Y1399997D01*
X4690872Y1392682D01*
X4691837Y1391310D01*
X4693056Y1390294D01*
X4694529Y1389634D01*
X4696206Y1389380D01*
X4698136Y1389735D01*
X4699812Y1390904D01*
X4701184Y1393037D01*
X4702302Y1396238D01*
X4704588Y1404366D01*
X4707788Y1404924D01*
X4710430Y1405128D01*
X4716119Y1404010D01*
X4720437Y1400759D01*
X4723180Y1395780D01*
X4724146Y1389380D01*
X4723180Y1382572D01*
X4720234Y1375613D01*
X4715256Y1368044D01*
X4704334Y1355039D01*
X4691380Y1340358D01*
X4691380Y1333500D01*
X4737100Y1333500D01*
X4737100Y1342136D01*
X4698492Y1342136D01*
X4711446Y1355598D01*
X4722012Y1366977D01*
X4725873Y1371600D01*
X4728921Y1375714D01*
X4731156Y1379423D01*
X4732680Y1382928D01*
X4733544Y1386382D01*
X4733798Y1389888D01*
X4732578Y1397762D01*
X4728870Y1403959D01*
X4722418Y1407972D01*
G37*
G36*
X4573778Y1407922D02*
G01*
X4573016Y1388110D01*
X4578604Y1388110D01*
X4581652Y1403096D01*
X4598924Y1403096D01*
X4599178Y1380845D01*
X4598924Y1338580D01*
X4587494Y1337310D01*
X4587494Y1333500D01*
X4621022Y1333500D01*
X4621022Y1337310D01*
X4609592Y1338580D01*
X4609338Y1380845D01*
X4609592Y1403096D01*
X4627118Y1403096D01*
X4630166Y1388110D01*
X4635500Y1388110D01*
X4634992Y1407922D01*
G37*
G36*
X4487926Y1407922D02*
G01*
X4487926Y1404112D01*
X4498340Y1403096D01*
X4498594Y1360525D01*
X4498340Y1338580D01*
X4487926Y1337310D01*
X4487926Y1333500D01*
X4519168Y1333500D01*
X4519168Y1337310D01*
X4509008Y1338580D01*
X4508754Y1369568D01*
X4545076Y1369568D01*
X4544822Y1338580D01*
X4534408Y1337310D01*
X4534408Y1333500D01*
X4565650Y1333500D01*
X4565650Y1337310D01*
X4555236Y1338580D01*
X4555236Y1403096D01*
X4565650Y1404112D01*
X4565650Y1407922D01*
X4534408Y1407922D01*
X4534408Y1404112D01*
X4544822Y1403096D01*
X4545076Y1373886D01*
X4508754Y1373886D01*
X4509008Y1403096D01*
X4519168Y1404112D01*
X4519168Y1407922D01*
G37*
G36*
X4374388Y1407922D02*
G01*
X4374388Y1404112D01*
X4384548Y1403096D01*
X4384802Y1360525D01*
X4384548Y1338580D01*
X4374388Y1337310D01*
X4374388Y1333500D01*
X4405630Y1333500D01*
X4405630Y1337310D01*
X4395216Y1338580D01*
X4394962Y1380845D01*
X4395216Y1403096D01*
X4405630Y1404112D01*
X4405630Y1407922D01*
G37*
G36*
X4310380Y1407922D02*
G01*
X4310380Y1404112D01*
X4320540Y1403096D01*
X4320794Y1380845D01*
X4320540Y1338580D01*
X4310380Y1337310D01*
X4310380Y1333500D01*
X4365498Y1333500D01*
X4366260Y1354328D01*
X4360418Y1354328D01*
X4356862Y1338326D01*
X4331208Y1338326D01*
X4330954Y1380896D01*
X4331208Y1403096D01*
X4341622Y1404112D01*
X4341622Y1407922D01*
G37*
G36*
X4633214Y1332992D02*
G01*
X4633214Y1326388D01*
X4681220Y1326388D01*
X4681220Y1332992D01*
G37*
G36*
X6224524Y1396492D02*
G01*
X6218428Y1395831D01*
X6212992Y1394002D01*
X6208217Y1391259D01*
X6203950Y1387856D01*
X6208522Y1382268D01*
X6211824Y1385265D01*
X6215481Y1387602D01*
X6219596Y1389176D01*
X6224016Y1389888D01*
X6229502Y1388872D01*
X6233668Y1386332D01*
X6236309Y1382471D01*
X6237224Y1377442D01*
X6236106Y1371600D01*
X6232499Y1366926D01*
X6225997Y1363827D01*
X6216142Y1362710D01*
X6216142Y1356360D01*
X6227114Y1355242D01*
X6234430Y1352042D01*
X6238494Y1347165D01*
X6239764Y1340866D01*
X6238595Y1334871D01*
X6235344Y1330299D01*
X6230416Y1327404D01*
X6224270Y1326388D01*
X6218174Y1327099D01*
X6213144Y1328978D01*
X6208979Y1331722D01*
X6205474Y1335024D01*
X6201156Y1329690D01*
X6205220Y1325829D01*
X6210401Y1322628D01*
X6216853Y1320342D01*
X6224778Y1319530D01*
X6229502Y1319885D01*
X6233871Y1320952D01*
X6237884Y1322730D01*
X6241338Y1325118D01*
X6244183Y1328115D01*
X6246317Y1331722D01*
X6247688Y1335938D01*
X6248146Y1340612D01*
X6246876Y1347571D01*
X6243472Y1353159D01*
X6238392Y1357274D01*
X6232144Y1359662D01*
X6232144Y1359916D01*
X6237681Y1362760D01*
X6241948Y1366672D01*
X6244640Y1371803D01*
X6245606Y1378204D01*
X6244031Y1385976D01*
X6239611Y1391716D01*
X6232956Y1395272D01*
G37*
G36*
X5978144Y1396492D02*
G01*
X5973318Y1396187D01*
X5968746Y1395272D01*
X5964529Y1393799D01*
X5960567Y1391767D01*
X5957011Y1389227D01*
X5953810Y1386128D01*
X5951067Y1382572D01*
X5948730Y1378508D01*
X5946851Y1373987D01*
X5945479Y1369009D01*
X5944666Y1363675D01*
X5944362Y1357884D01*
X5944971Y1349400D01*
X5946800Y1341831D01*
X5949696Y1335278D01*
X5953607Y1329740D01*
X5958433Y1325372D01*
X5964072Y1322171D01*
X5970422Y1320190D01*
X5977382Y1319530D01*
X5984443Y1320139D01*
X5990691Y1321917D01*
X5996025Y1324559D01*
X6000242Y1327912D01*
X6000242Y1358900D01*
X5976112Y1358900D01*
X5976112Y1351788D01*
X5992368Y1351788D01*
X5992368Y1331468D01*
X5989624Y1329588D01*
X5986221Y1328115D01*
X5982309Y1327200D01*
X5978144Y1326896D01*
X5972454Y1327454D01*
X5967476Y1329080D01*
X5963158Y1331772D01*
X5959551Y1335379D01*
X5956757Y1339900D01*
X5954674Y1345234D01*
X5953404Y1351330D01*
X5952998Y1358138D01*
X5953455Y1364945D01*
X5954776Y1371041D01*
X5956960Y1376324D01*
X5959856Y1380794D01*
X5963513Y1384350D01*
X5967780Y1386941D01*
X5972708Y1388567D01*
X5978144Y1389126D01*
X5983528Y1388567D01*
X5987897Y1386992D01*
X5991555Y1384757D01*
X5994654Y1382014D01*
X5999226Y1387348D01*
X5995517Y1390700D01*
X5990894Y1393647D01*
X5985103Y1395730D01*
G37*
G36*
X6084316Y1395222D02*
G01*
X6084316Y1388110D01*
X6107176Y1388110D01*
X6107176Y1320800D01*
X6115558Y1320800D01*
X6115558Y1388110D01*
X6138418Y1388110D01*
X6138418Y1395222D01*
G37*
G36*
X6018276Y1395222D02*
G01*
X6018276Y1320800D01*
X6026658Y1320800D01*
X6026658Y1356360D01*
X6062472Y1356360D01*
X6062472Y1320800D01*
X6070854Y1320800D01*
X6070854Y1395222D01*
X6062472Y1395222D01*
X6062472Y1363726D01*
X6026658Y1363726D01*
X6026658Y1395222D01*
G37*
G36*
X5919470Y1395222D02*
G01*
X5919470Y1320800D01*
X5927852Y1320800D01*
X5927852Y1395222D01*
G37*
G36*
X5865114Y1395222D02*
G01*
X5865114Y1320800D01*
X5906516Y1320800D01*
X5906516Y1327912D01*
X5873496Y1327912D01*
X5873496Y1395222D01*
G37*
G36*
X6142736Y1312672D02*
G01*
X6142736Y1306830D01*
X6196838Y1306830D01*
X6196838Y1312672D01*
G37*
G36*
X3003550Y1409700D02*
G01*
X2998114Y1409344D01*
X2992983Y1408379D01*
X2988208Y1406804D01*
X2983788Y1404670D01*
X2979826Y1401927D01*
X2976270Y1398727D01*
X2973171Y1395069D01*
X2970530Y1390954D01*
X2968498Y1386433D01*
X2966974Y1381556D01*
X2966008Y1376375D01*
X2965704Y1370838D01*
X2966008Y1365250D01*
X2966923Y1360017D01*
X2968447Y1355140D01*
X2970479Y1350619D01*
X2973070Y1346504D01*
X2976118Y1342847D01*
X2979623Y1339646D01*
X2983636Y1336954D01*
X2988005Y1334820D01*
X2992729Y1333246D01*
X2997860Y1332280D01*
X3003296Y1331976D01*
X3009696Y1332382D01*
X3015742Y1333601D01*
X3021584Y1335633D01*
X3027426Y1338326D01*
X3027680Y1364488D01*
X3034284Y1364996D01*
X3034284Y1369060D01*
X3005328Y1369060D01*
X3005328Y1364996D01*
X3017266Y1364234D01*
X3017520Y1339088D01*
X3014370Y1338072D01*
X3011271Y1337360D01*
X3008122Y1336954D01*
X3004820Y1336802D01*
X2998724Y1337411D01*
X2993339Y1339138D01*
X2988564Y1341932D01*
X2984601Y1345844D01*
X2981401Y1350670D01*
X2979064Y1356512D01*
X2977642Y1363268D01*
X2977134Y1370838D01*
X2977642Y1378508D01*
X2979166Y1385265D01*
X2981604Y1391107D01*
X2984855Y1395933D01*
X2988868Y1399794D01*
X2993542Y1402588D01*
X2998774Y1404315D01*
X3004566Y1404874D01*
X3008071Y1404670D01*
X3011322Y1404061D01*
X3014370Y1403045D01*
X3017266Y1401572D01*
X3020060Y1387856D01*
X3025902Y1387856D01*
X3025648Y1404112D01*
X3020923Y1406601D01*
X3015843Y1408328D01*
X3010103Y1409344D01*
G37*
G36*
X3270503Y1409192D02*
G01*
X3247644Y1403096D01*
X3247644Y1399286D01*
X3262376Y1400556D01*
X3262325Y1348079D01*
X3262122Y1339088D01*
X3246374Y1337056D01*
X3246374Y1333500D01*
X3287268Y1333500D01*
X3287268Y1337056D01*
X3271774Y1339088D01*
X3271570Y1348079D01*
X3271520Y1391920D01*
X3272028Y1407922D01*
G37*
G36*
X3125978Y1407922D02*
G01*
X3125216Y1388110D01*
X3130804Y1388110D01*
X3133852Y1403096D01*
X3151124Y1403096D01*
X3151378Y1380845D01*
X3151124Y1338580D01*
X3139694Y1337310D01*
X3139694Y1333500D01*
X3173222Y1333500D01*
X3173222Y1337310D01*
X3161792Y1338580D01*
X3161538Y1380845D01*
X3161792Y1403096D01*
X3179318Y1403096D01*
X3182366Y1388110D01*
X3187700Y1388110D01*
X3187192Y1407922D01*
G37*
G36*
X3040126Y1407922D02*
G01*
X3040126Y1404112D01*
X3050540Y1403096D01*
X3050794Y1360525D01*
X3050540Y1338580D01*
X3040126Y1337310D01*
X3040126Y1333500D01*
X3071368Y1333500D01*
X3071368Y1337310D01*
X3061208Y1338580D01*
X3060954Y1369568D01*
X3097276Y1369568D01*
X3097022Y1338580D01*
X3086608Y1337310D01*
X3086608Y1333500D01*
X3117850Y1333500D01*
X3117850Y1337310D01*
X3107436Y1338580D01*
X3107436Y1403096D01*
X3117850Y1404112D01*
X3117850Y1407922D01*
X3086608Y1407922D01*
X3086608Y1404112D01*
X3097022Y1403096D01*
X3097276Y1373886D01*
X3060954Y1373886D01*
X3061208Y1403096D01*
X3071368Y1404112D01*
X3071368Y1407922D01*
G37*
G36*
X2926588Y1407922D02*
G01*
X2926588Y1404112D01*
X2936748Y1403096D01*
X2937002Y1360525D01*
X2936748Y1338580D01*
X2926588Y1337310D01*
X2926588Y1333500D01*
X2957830Y1333500D01*
X2957830Y1337310D01*
X2947416Y1338580D01*
X2947162Y1380845D01*
X2947416Y1403096D01*
X2957830Y1404112D01*
X2957830Y1407922D01*
G37*
G36*
X2862580Y1407922D02*
G01*
X2862580Y1404112D01*
X2872740Y1403096D01*
X2872994Y1380845D01*
X2872740Y1338580D01*
X2862580Y1337310D01*
X2862580Y1333500D01*
X2917698Y1333500D01*
X2918460Y1354328D01*
X2912618Y1354328D01*
X2909062Y1338326D01*
X2883408Y1338326D01*
X2883154Y1380896D01*
X2883408Y1403096D01*
X2893822Y1404112D01*
X2893822Y1407922D01*
G37*
G36*
X3185414Y1332992D02*
G01*
X3185414Y1326388D01*
X3233420Y1326388D01*
X3233420Y1332992D01*
G37*
D20*
X7050277Y4432300D02*
G01*
X6856475Y4432300D01*
X7050277Y4432300D02*
G01*
X6856475Y4358386D01*
X7050277Y4284471D02*
G01*
X6856475Y4358386D01*
X7050277Y4284471D02*
G01*
X6856475Y4284471D01*
X6985761Y4214368D02*
G01*
X6856475Y4158995D01*
X6985761Y4103370D02*
G01*
X6856475Y4158995D01*
X6819391Y4177284D01*
X6800850Y4195826D01*
X6791706Y4214368D01*
X6791706Y4223512D01*
X7022591Y3913123D02*
G01*
X7041134Y3931665D01*
X7050277Y3959352D01*
X7050277Y3996436D01*
X7041134Y4024121D01*
X7022591Y4042410D01*
X7004050Y4042410D01*
X6985761Y4033265D01*
X6976363Y4024121D01*
X6967220Y4005579D01*
X6948677Y3950207D01*
X6939534Y3931665D01*
X6930390Y3922521D01*
X6911847Y3913123D01*
X6884161Y3913123D01*
X6865620Y3931665D01*
X6856475Y3959352D01*
X6856475Y3996436D01*
X6865620Y4024121D01*
X6884161Y4042410D01*
X6930390Y3852163D02*
G01*
X6930390Y3741420D01*
X6948677Y3741420D01*
X6967220Y3750563D01*
X6976363Y3759962D01*
X6985761Y3778250D01*
X6985761Y3806189D01*
X6976363Y3824478D01*
X6958075Y3843020D01*
X6930390Y3852163D01*
X6911847Y3852163D01*
X6884161Y3843020D01*
X6865620Y3824478D01*
X6856475Y3806189D01*
X6856475Y3778250D01*
X6865620Y3759962D01*
X6884161Y3741420D01*
X6985761Y3680460D02*
G01*
X6856475Y3680460D01*
X6948677Y3680460D02*
G01*
X6976363Y3652773D01*
X6985761Y3634231D01*
X6985761Y3606545D01*
X6976363Y3588004D01*
X6948677Y3578860D01*
X6856475Y3578860D01*
X6958075Y3416300D02*
G01*
X6976363Y3425444D01*
X6985761Y3453129D01*
X6985761Y3481070D01*
X6976363Y3508755D01*
X6958075Y3517900D01*
X6939534Y3508755D01*
X6930390Y3490213D01*
X6920991Y3443986D01*
X6911847Y3425444D01*
X6893306Y3416300D01*
X6884161Y3416300D01*
X6865620Y3425444D01*
X6856475Y3453129D01*
X6856475Y3481070D01*
X6865620Y3508755D01*
X6884161Y3517900D01*
X6985761Y3309112D02*
G01*
X6976363Y3327654D01*
X6958075Y3346195D01*
X6930390Y3355339D01*
X6911847Y3355339D01*
X6884161Y3346195D01*
X6865620Y3327654D01*
X6856475Y3309112D01*
X6856475Y3281426D01*
X6865620Y3262884D01*
X6884161Y3244595D01*
X6911847Y3235197D01*
X6930390Y3235197D01*
X6958075Y3244595D01*
X6976363Y3262884D01*
X6985761Y3281426D01*
X6985761Y3309112D01*
X6985761Y3174237D02*
G01*
X6856475Y3174237D01*
X6930390Y3174237D02*
G01*
X6958075Y3165094D01*
X6976363Y3146552D01*
X6985761Y3128010D01*
X6985761Y3100323D01*
X6958075Y2937763D02*
G01*
X6976363Y2947162D01*
X6985761Y2974847D01*
X6985761Y3002534D01*
X6976363Y3030220D01*
X6958075Y3039363D01*
X6939534Y3030220D01*
X6930390Y3011678D01*
X6920991Y2965450D01*
X6911847Y2947162D01*
X6893306Y2937763D01*
X6884161Y2937763D01*
X6865620Y2947162D01*
X6856475Y2974847D01*
X6856475Y3002534D01*
X6865620Y3030220D01*
X6884161Y3039363D01*
X7050277Y2734563D02*
G01*
X6856475Y2734563D01*
X7050277Y2734563D02*
G01*
X7050277Y2614676D01*
X6958075Y2734563D02*
G01*
X6958075Y2660650D01*
X6985761Y2442718D02*
G01*
X6856475Y2442718D01*
X6958075Y2442718D02*
G01*
X6976363Y2461260D01*
X6985761Y2479802D01*
X6985761Y2507487D01*
X6976363Y2526029D01*
X6958075Y2544318D01*
X6930390Y2553715D01*
X6911847Y2553715D01*
X6884161Y2544318D01*
X6865620Y2526029D01*
X6856475Y2507487D01*
X6856475Y2479802D01*
X6865620Y2461260D01*
X6884161Y2442718D01*
X7050277Y2381757D02*
G01*
X7041134Y2372613D01*
X7050277Y2363470D01*
X7059675Y2372613D01*
X7050277Y2381757D01*
X6985761Y2372613D02*
G01*
X6856475Y2372613D01*
X6985761Y2302510D02*
G01*
X6856475Y2302510D01*
X6930390Y2302510D02*
G01*
X6958075Y2293112D01*
X6976363Y2274570D01*
X6985761Y2256281D01*
X6985761Y2228595D01*
X6985761Y2158237D02*
G01*
X6856475Y2102865D01*
X6985761Y2047494D02*
G01*
X6856475Y2102865D01*
X6819391Y2121407D01*
X6800850Y2139950D01*
X6791706Y2158237D01*
X6791706Y2167636D01*
X7050277Y1844294D02*
G01*
X6856475Y1844294D01*
X6856475Y1844294D02*
G01*
X6856475Y1733550D01*
X7050277Y1672589D02*
G01*
X7041134Y1663192D01*
X7050277Y1654047D01*
X7059675Y1663192D01*
X7050277Y1672589D01*
X6985761Y1663192D02*
G01*
X6856475Y1663192D01*
X6985761Y1482089D02*
G01*
X6837934Y1482089D01*
X6810247Y1491487D01*
X6800850Y1500631D01*
X6791706Y1519173D01*
X6791706Y1546860D01*
X6800850Y1565402D01*
X6958075Y1482089D02*
G01*
X6976363Y1500631D01*
X6985761Y1519173D01*
X6985761Y1546860D01*
X6976363Y1565402D01*
X6958075Y1583689D01*
X6930390Y1593087D01*
X6911847Y1593087D01*
X6884161Y1583689D01*
X6865620Y1565402D01*
X6856475Y1546860D01*
X6856475Y1519173D01*
X6865620Y1500631D01*
X6884161Y1482089D01*
X7050277Y1421129D02*
G01*
X6856475Y1421129D01*
X6948677Y1421129D02*
G01*
X6976363Y1393444D01*
X6985761Y1375155D01*
X6985761Y1347470D01*
X6976363Y1328928D01*
X6948677Y1319529D01*
X6856475Y1319529D01*
X7050277Y1230884D02*
G01*
X6893306Y1230884D01*
X6865620Y1221739D01*
X6856475Y1203197D01*
X6856475Y1184910D01*
X6985761Y1258570D02*
G01*
X6985761Y1194054D01*
D22*
X522478Y1283207D02*
G01*
X517144Y1293621D01*
X506729Y1304036D01*
X496570Y1309115D01*
X475742Y1309115D01*
X465328Y1304036D01*
X454913Y1293621D01*
X449579Y1283207D01*
X444500Y1267460D01*
X444500Y1241552D01*
X449579Y1226057D01*
X454913Y1215644D01*
X465328Y1205229D01*
X475742Y1200150D01*
X496570Y1200150D01*
X506729Y1205229D01*
X517144Y1215644D01*
X522478Y1226057D01*
X556768Y1288287D02*
G01*
X567181Y1293621D01*
X582676Y1309115D01*
X582676Y1200150D01*
X977900Y4331715D02*
G01*
X977900Y4222750D01*
X977900Y4331715D02*
G01*
X1024636Y4331715D01*
X1040129Y4326636D01*
X1045463Y4321302D01*
X1050544Y4310887D01*
X1050544Y4300473D01*
X1045463Y4290060D01*
X1040129Y4284979D01*
X1024636Y4279900D01*
X977900Y4279900D01*
X1014221Y4279900D02*
G01*
X1050544Y4222750D01*
X1116076Y4331715D02*
G01*
X1105662Y4326636D01*
X1095247Y4316221D01*
X1090168Y4305807D01*
X1084834Y4290060D01*
X1084834Y4264152D01*
X1090168Y4248657D01*
X1095247Y4238244D01*
X1105662Y4227829D01*
X1116076Y4222750D01*
X1136904Y4222750D01*
X1147318Y4227829D01*
X1157731Y4238244D01*
X1162812Y4248657D01*
X1168145Y4264152D01*
X1168145Y4290060D01*
X1162812Y4305807D01*
X1157731Y4316221D01*
X1147318Y4326636D01*
X1136904Y4331715D01*
X1116076Y4331715D01*
X1238757Y4331715D02*
G01*
X1238757Y4222750D01*
X1202436Y4331715D02*
G01*
X1275079Y4331715D01*
X1351026Y4331715D02*
G01*
X1309370Y4222750D01*
X1351026Y4331715D02*
G01*
X1392428Y4222750D01*
X1324863Y4259071D02*
G01*
X1376934Y4259071D01*
X1426718Y4331715D02*
G01*
X1426718Y4222750D01*
X1426718Y4331715D02*
G01*
X1473454Y4331715D01*
X1489202Y4326636D01*
X1494281Y4321302D01*
X1499615Y4310887D01*
X1499615Y4300473D01*
X1494281Y4290060D01*
X1489202Y4284979D01*
X1473454Y4279900D01*
X1426718Y4279900D01*
X1463039Y4279900D02*
G01*
X1499615Y4222750D01*
X1533905Y4331715D02*
G01*
X1575307Y4279900D01*
X1575307Y4222750D01*
X1616963Y4331715D02*
G01*
X1575307Y4279900D01*
X6414515Y4140200D02*
G01*
X6305550Y4140200D01*
X6414515Y4140200D02*
G01*
X6414515Y4093463D01*
X6409436Y4077970D01*
X6404102Y4072636D01*
X6393688Y4067555D01*
X6378193Y4067555D01*
X6367779Y4072636D01*
X6362700Y4077970D01*
X6357365Y4093463D01*
X6357365Y4140200D01*
X6414515Y4033265D02*
G01*
X6305550Y4033265D01*
X6414515Y4033265D02*
G01*
X6414515Y3986529D01*
X6409436Y3970781D01*
X6404102Y3965702D01*
X6393688Y3960368D01*
X6383274Y3960368D01*
X6372859Y3965702D01*
X6367779Y3970781D01*
X6362700Y3986529D01*
X6362700Y4033265D01*
X6362700Y3996689D02*
G01*
X6305550Y3960368D01*
X6414515Y3895089D02*
G01*
X6409436Y3905250D01*
X6399022Y3915663D01*
X6388608Y3920997D01*
X6372859Y3926078D01*
X6346952Y3926078D01*
X6331458Y3920997D01*
X6321043Y3915663D01*
X6310629Y3905250D01*
X6305550Y3895089D01*
X6305550Y3874262D01*
X6310629Y3863847D01*
X6321043Y3853434D01*
X6331458Y3848100D01*
X6346952Y3843020D01*
X6372859Y3843020D01*
X6388608Y3848100D01*
X6399022Y3853434D01*
X6409436Y3863847D01*
X6414515Y3874262D01*
X6414515Y3895089D01*
X6268974Y3808729D02*
G01*
X6268974Y3715257D01*
X6414515Y3680968D02*
G01*
X6305550Y3680968D01*
X6414515Y3680968D02*
G01*
X6305550Y3639312D01*
X6414515Y3597910D02*
G01*
X6305550Y3639312D01*
X6414515Y3597910D02*
G01*
X6305550Y3597910D01*
X6414515Y3563620D02*
G01*
X6305550Y3563620D01*
X6414515Y3529329D02*
G01*
X6305550Y3529329D01*
X6414515Y3529329D02*
G01*
X6305550Y3456431D01*
X6414515Y3456431D02*
G01*
X6305550Y3456431D01*
X6414515Y3422142D02*
G01*
X6305550Y3422142D01*
X6268974Y3387852D02*
G01*
X6268974Y3294379D01*
X6414515Y3249676D02*
G01*
X6414515Y3192526D01*
X6372859Y3223768D01*
X6372859Y3208020D01*
X6367779Y3197860D01*
X6362700Y3192526D01*
X6346952Y3187445D01*
X6336538Y3187445D01*
X6321043Y3192526D01*
X6310629Y3202939D01*
X6305550Y3218434D01*
X6305550Y3234181D01*
X6310629Y3249676D01*
X6315709Y3255010D01*
X6326124Y3260089D01*
X6414515Y3142742D02*
G01*
X6414515Y3085592D01*
X6372859Y3116579D01*
X6372859Y3101086D01*
X6367779Y3090671D01*
X6362700Y3085592D01*
X6346952Y3080257D01*
X6336538Y3080257D01*
X6321043Y3085592D01*
X6310629Y3096005D01*
X6305550Y3111500D01*
X6305550Y3126994D01*
X6310629Y3142742D01*
X6315709Y3147821D01*
X6326124Y3153155D01*
X6414515Y3045968D02*
G01*
X6305550Y3004565D01*
X6414515Y2962910D02*
G01*
X6305550Y3004565D01*
X1244600Y2630055D02*
G01*
X1244600Y2520835D01*
X1244600Y2630055D02*
G01*
X1317244Y2520835D01*
X1317244Y2630055D02*
G01*
X1317244Y2520835D01*
X1351534Y2630055D02*
G01*
X1351534Y2520835D01*
X1351534Y2630055D02*
G01*
X1398270Y2630055D01*
X1414018Y2624721D01*
X1419097Y2619641D01*
X1424431Y2609227D01*
X1424431Y2598813D01*
X1419097Y2588399D01*
X1414018Y2583065D01*
X1398270Y2577985D01*
X1351534Y2577985D01*
X1388110Y2577985D02*
G01*
X1424431Y2520835D01*
X1458721Y2630055D02*
G01*
X1458721Y2520835D01*
X1458721Y2630055D02*
G01*
X1526286Y2630055D01*
X1458721Y2577985D02*
G01*
X1500123Y2577985D01*
X1565655Y2603893D02*
G01*
X1565655Y2609227D01*
X1570989Y2619641D01*
X1576070Y2624721D01*
X1586484Y2630055D01*
X1607312Y2630055D01*
X1617726Y2624721D01*
X1622805Y2619641D01*
X1628139Y2609227D01*
X1628139Y2598813D01*
X1622805Y2588399D01*
X1612392Y2572905D01*
X1560576Y2520835D01*
X1633220Y2520835D01*
X1719579Y2630055D02*
G01*
X1667510Y2557157D01*
X1745487Y2557157D01*
X1719579Y2630055D02*
G01*
X1719579Y2520835D01*
X1779778Y2630055D02*
G01*
X1779778Y2520835D01*
X1779778Y2520835D02*
G01*
X1842007Y2520835D01*
X1907539Y2630055D02*
G01*
X1892045Y2624721D01*
X1881631Y2609227D01*
X1876297Y2583065D01*
X1876297Y2567571D01*
X1881631Y2541663D01*
X1892045Y2525915D01*
X1907539Y2520835D01*
X1917954Y2520835D01*
X1933447Y2525915D01*
X1943861Y2541663D01*
X1949195Y2567571D01*
X1949195Y2583065D01*
X1943861Y2609227D01*
X1933447Y2624721D01*
X1917954Y2630055D01*
X1907539Y2630055D01*
X1983486Y2609227D02*
G01*
X1993900Y2614307D01*
X2009393Y2630055D01*
X2009393Y2520835D01*
X2090420Y2614307D02*
G01*
X2090420Y2520835D01*
X2043684Y2567571D02*
G01*
X2137156Y2567571D01*
X4476241Y2261615D02*
G01*
X4465827Y2256536D01*
X4455413Y2246121D01*
X4450079Y2235707D01*
X4445000Y2219960D01*
X4445000Y2194052D01*
X4450079Y2178557D01*
X4455413Y2168144D01*
X4465827Y2157729D01*
X4476241Y2152650D01*
X4497070Y2152650D01*
X4507229Y2157729D01*
X4517643Y2168144D01*
X4522977Y2178557D01*
X4528058Y2194052D01*
X4528058Y2219960D01*
X4522977Y2235707D01*
X4517643Y2246121D01*
X4507229Y2256536D01*
X4497070Y2261615D01*
X4476241Y2261615D01*
X4491736Y2173223D02*
G01*
X4522977Y2142236D01*
X4567681Y2235707D02*
G01*
X4567681Y2240787D01*
X4572761Y2251202D01*
X4578095Y2256536D01*
X4588509Y2261615D01*
X4609084Y2261615D01*
X4619497Y2256536D01*
X4624831Y2251202D01*
X4629911Y2240787D01*
X4629911Y2230373D01*
X4624831Y2219960D01*
X4614418Y2204465D01*
X4562347Y2152650D01*
X4635245Y2152650D01*
X6000241Y2248915D02*
G01*
X5989827Y2243836D01*
X5979413Y2233421D01*
X5974079Y2223007D01*
X5969000Y2207260D01*
X5969000Y2181352D01*
X5974079Y2165857D01*
X5979413Y2155444D01*
X5989827Y2145029D01*
X6000241Y2139950D01*
X6021070Y2139950D01*
X6031229Y2145029D01*
X6041643Y2155444D01*
X6046977Y2165857D01*
X6052058Y2181352D01*
X6052058Y2207260D01*
X6046977Y2223007D01*
X6041643Y2233421D01*
X6031229Y2243836D01*
X6021070Y2248915D01*
X6000241Y2248915D01*
X6015736Y2160523D02*
G01*
X6046977Y2129536D01*
X6096761Y2248915D02*
G01*
X6153911Y2248915D01*
X6122670Y2207260D01*
X6138418Y2207260D01*
X6148831Y2202179D01*
X6153911Y2197100D01*
X6159245Y2181352D01*
X6159245Y2170937D01*
X6153911Y2155444D01*
X6143497Y2145029D01*
X6128004Y2139950D01*
X6112509Y2139950D01*
X6096761Y2145029D01*
X6091681Y2150110D01*
X6086347Y2160523D01*
X3028441Y2261615D02*
G01*
X3018027Y2256536D01*
X3007613Y2246121D01*
X3002279Y2235707D01*
X2997200Y2219960D01*
X2997200Y2194052D01*
X3002279Y2178557D01*
X3007613Y2168144D01*
X3018027Y2157729D01*
X3028441Y2152650D01*
X3049270Y2152650D01*
X3059429Y2157729D01*
X3069843Y2168144D01*
X3075177Y2178557D01*
X3080258Y2194052D01*
X3080258Y2219960D01*
X3075177Y2235707D01*
X3069843Y2246121D01*
X3059429Y2256536D01*
X3049270Y2261615D01*
X3028441Y2261615D01*
X3043936Y2173223D02*
G01*
X3075177Y2142236D01*
X3114547Y2240787D02*
G01*
X3124961Y2246121D01*
X3140709Y2261615D01*
X3140709Y2152650D01*
X520192Y4078478D02*
G01*
X509778Y4073144D01*
X499363Y4062729D01*
X494284Y4052570D01*
X494284Y4031742D01*
X499363Y4021328D01*
X509778Y4010913D01*
X520192Y4005579D01*
X535939Y4000500D01*
X561847Y4000500D01*
X577342Y4005579D01*
X587755Y4010913D01*
X598170Y4021328D01*
X603250Y4031742D01*
X603250Y4052570D01*
X598170Y4062729D01*
X587755Y4073144D01*
X577342Y4078478D01*
X494284Y4144010D02*
G01*
X499363Y4133595D01*
X509778Y4123181D01*
X520192Y4117847D01*
X535939Y4112768D01*
X561847Y4112768D01*
X577342Y4117847D01*
X587755Y4123181D01*
X598170Y4133595D01*
X603250Y4144010D01*
X603250Y4164584D01*
X598170Y4174997D01*
X587755Y4185412D01*
X577342Y4190745D01*
X561847Y4195826D01*
X535939Y4195826D01*
X520192Y4190745D01*
X509778Y4185412D01*
X499363Y4174997D01*
X494284Y4164584D01*
X494284Y4144010D01*
X494284Y4230115D02*
G01*
X603250Y4230115D01*
X494284Y4230115D02*
G01*
X603250Y4302760D01*
X494284Y4302760D02*
G01*
X603250Y4302760D01*
X494284Y4373626D02*
G01*
X603250Y4373626D01*
X494284Y4337050D02*
G01*
X494284Y4409947D01*
X494284Y4444237D02*
G01*
X603250Y4444237D01*
X494284Y4444237D02*
G01*
X494284Y4490973D01*
X499363Y4506468D01*
X504697Y4511802D01*
X515112Y4516881D01*
X525526Y4516881D01*
X535939Y4511802D01*
X541020Y4506468D01*
X546100Y4490973D01*
X546100Y4444237D01*
X546100Y4480560D02*
G01*
X603250Y4516881D01*
X494284Y4582413D02*
G01*
X499363Y4572000D01*
X509778Y4561586D01*
X520192Y4556505D01*
X535939Y4551171D01*
X561847Y4551171D01*
X577342Y4556505D01*
X587755Y4561586D01*
X598170Y4572000D01*
X603250Y4582413D01*
X603250Y4603242D01*
X598170Y4613655D01*
X587755Y4624070D01*
X577342Y4629150D01*
X561847Y4634229D01*
X535939Y4634229D01*
X520192Y4629150D01*
X509778Y4624070D01*
X499363Y4613655D01*
X494284Y4603242D01*
X494284Y4582413D01*
X494284Y4668520D02*
G01*
X603250Y4668520D01*
X603250Y4668520D02*
G01*
X603250Y4731004D01*
X164084Y3149600D02*
G01*
X273050Y3149600D01*
X164084Y3149600D02*
G01*
X164084Y3196336D01*
X169163Y3211829D01*
X174497Y3217163D01*
X184912Y3222244D01*
X200405Y3222244D01*
X210820Y3217163D01*
X215900Y3211829D01*
X221234Y3196336D01*
X221234Y3149600D01*
X164084Y3287776D02*
G01*
X169163Y3277362D01*
X179578Y3266947D01*
X189992Y3261868D01*
X205739Y3256534D01*
X231647Y3256534D01*
X247142Y3261868D01*
X257555Y3266947D01*
X267970Y3277362D01*
X273050Y3287776D01*
X273050Y3308604D01*
X267970Y3319018D01*
X257555Y3329431D01*
X247142Y3334512D01*
X231647Y3339845D01*
X205739Y3339845D01*
X189992Y3334512D01*
X179578Y3329431D01*
X169163Y3319018D01*
X164084Y3308604D01*
X164084Y3287776D01*
X164084Y3374136D02*
G01*
X273050Y3400044D01*
X164084Y3425952D02*
G01*
X273050Y3400044D01*
X164084Y3425952D02*
G01*
X273050Y3451860D01*
X164084Y3478021D02*
G01*
X273050Y3451860D01*
X164084Y3512312D02*
G01*
X273050Y3512312D01*
X164084Y3512312D02*
G01*
X164084Y3579876D01*
X215900Y3512312D02*
G01*
X215900Y3553713D01*
X273050Y3512312D02*
G01*
X273050Y3579876D01*
X164084Y3614165D02*
G01*
X273050Y3614165D01*
X164084Y3614165D02*
G01*
X164084Y3660902D01*
X169163Y3676395D01*
X174497Y3681729D01*
X184912Y3686810D01*
X195326Y3686810D01*
X205739Y3681729D01*
X210820Y3676395D01*
X215900Y3660902D01*
X215900Y3614165D01*
X215900Y3650487D02*
G01*
X273050Y3686810D01*
X151384Y2374900D02*
G01*
X260350Y2374900D01*
X151384Y2374900D02*
G01*
X151384Y2421636D01*
X156463Y2437129D01*
X161797Y2442463D01*
X172212Y2447544D01*
X182626Y2447544D01*
X193039Y2442463D01*
X198120Y2437129D01*
X203200Y2421636D01*
X203200Y2374900D01*
X203200Y2411221D02*
G01*
X260350Y2447544D01*
X151384Y2481834D02*
G01*
X260350Y2481834D01*
X151384Y2481834D02*
G01*
X151384Y2549397D01*
X203200Y2481834D02*
G01*
X203200Y2523489D01*
X260350Y2481834D02*
G01*
X260350Y2549397D01*
X166878Y2656586D02*
G01*
X156463Y2646171D01*
X151384Y2630423D01*
X151384Y2609850D01*
X156463Y2594102D01*
X166878Y2583687D01*
X177292Y2583687D01*
X187705Y2589021D01*
X193039Y2594102D01*
X198120Y2604515D01*
X208534Y2635757D01*
X213613Y2646171D01*
X218947Y2651252D01*
X229362Y2656586D01*
X244855Y2656586D01*
X255270Y2646171D01*
X260350Y2630423D01*
X260350Y2609850D01*
X255270Y2594102D01*
X244855Y2583687D01*
X151384Y2690876D02*
G01*
X260350Y2690876D01*
X151384Y2690876D02*
G01*
X151384Y2758439D01*
X203200Y2690876D02*
G01*
X203200Y2732278D01*
X260350Y2690876D02*
G01*
X260350Y2758439D01*
X151384Y2829052D02*
G01*
X260350Y2829052D01*
X151384Y2792729D02*
G01*
X151384Y2865373D01*
X2565400Y1017015D02*
G01*
X2565400Y908050D01*
X2565400Y1017015D02*
G01*
X2612136Y1017015D01*
X2627629Y1011936D01*
X2632963Y1006602D01*
X2638043Y996187D01*
X2638043Y985773D01*
X2632963Y975360D01*
X2627629Y970279D01*
X2612136Y965200D01*
X2565400Y965200D01*
X2601722Y965200D02*
G01*
X2638043Y908050D01*
X2672334Y996187D02*
G01*
X2682747Y1001521D01*
X2698495Y1017015D01*
X2698495Y908050D01*
X4000500Y1029715D02*
G01*
X4000500Y920750D01*
X4000500Y1029715D02*
G01*
X4047236Y1029715D01*
X4062729Y1024636D01*
X4068063Y1019302D01*
X4073143Y1008887D01*
X4073143Y998473D01*
X4068063Y988060D01*
X4062729Y982979D01*
X4047236Y977900D01*
X4000500Y977900D01*
X4036822Y977900D02*
G01*
X4073143Y920750D01*
X4112768Y1003807D02*
G01*
X4112768Y1008887D01*
X4117847Y1019302D01*
X4123181Y1024636D01*
X4133595Y1029715D01*
X4154170Y1029715D01*
X4164584Y1024636D01*
X4169918Y1019302D01*
X4174997Y1008887D01*
X4174997Y998473D01*
X4169918Y988060D01*
X4159504Y972565D01*
X4107434Y920750D01*
X4180331Y920750D01*
X5486400Y1017015D02*
G01*
X5486400Y908050D01*
X5486400Y1017015D02*
G01*
X5533136Y1017015D01*
X5548629Y1011936D01*
X5553963Y1006602D01*
X5559043Y996187D01*
X5559043Y985773D01*
X5553963Y975360D01*
X5548629Y970279D01*
X5533136Y965200D01*
X5486400Y965200D01*
X5522722Y965200D02*
G01*
X5559043Y908050D01*
X5603747Y1017015D02*
G01*
X5660897Y1017015D01*
X5629909Y975360D01*
X5645404Y975360D01*
X5655818Y970279D01*
X5660897Y965200D01*
X5666231Y949452D01*
X5666231Y939037D01*
X5660897Y923544D01*
X5650484Y913129D01*
X5634990Y908050D01*
X5619495Y908050D01*
X5603747Y913129D01*
X5598668Y918210D01*
X5593334Y928623D01*
X4927600Y1029715D02*
G01*
X4927600Y920750D01*
X4927600Y1029715D02*
G01*
X4974336Y1029715D01*
X4989829Y1024636D01*
X4995163Y1019302D01*
X5000243Y1008887D01*
X5000243Y998473D01*
X4995163Y988060D01*
X4989829Y982979D01*
X4974336Y977900D01*
X4927600Y977900D01*
X4963922Y977900D02*
G01*
X5000243Y920750D01*
X5097018Y1029715D02*
G01*
X5044947Y1029715D01*
X5039868Y982979D01*
X5044947Y988060D01*
X5060695Y993394D01*
X5076190Y993394D01*
X5091684Y988060D01*
X5102097Y977900D01*
X5107431Y962152D01*
X5107431Y951737D01*
X5102097Y936244D01*
X5091684Y925829D01*
X5076190Y920750D01*
X5060695Y920750D01*
X5044947Y925829D01*
X5039868Y930910D01*
X5034534Y941323D01*
X6438900Y1017015D02*
G01*
X6438900Y908050D01*
X6438900Y1017015D02*
G01*
X6485636Y1017015D01*
X6501129Y1011936D01*
X6506463Y1006602D01*
X6511543Y996187D01*
X6511543Y985773D01*
X6506463Y975360D01*
X6501129Y970279D01*
X6485636Y965200D01*
X6438900Y965200D01*
X6475222Y965200D02*
G01*
X6511543Y908050D01*
X6608318Y1001521D02*
G01*
X6602984Y1011936D01*
X6587490Y1017015D01*
X6577075Y1017015D01*
X6561581Y1011936D01*
X6551168Y996187D01*
X6545834Y970279D01*
X6545834Y944371D01*
X6551168Y923544D01*
X6561581Y913129D01*
X6577075Y908050D01*
X6582409Y908050D01*
X6597904Y913129D01*
X6608318Y923544D01*
X6613397Y939037D01*
X6613397Y944371D01*
X6608318Y959865D01*
X6597904Y970279D01*
X6582409Y975360D01*
X6577075Y975360D01*
X6561581Y970279D01*
X6551168Y959865D01*
X6545834Y944371D01*
X3467100Y1029715D02*
G01*
X3467100Y920750D01*
X3467100Y1029715D02*
G01*
X3513836Y1029715D01*
X3529329Y1024636D01*
X3534663Y1019302D01*
X3539743Y1008887D01*
X3539743Y998473D01*
X3534663Y988060D01*
X3529329Y982979D01*
X3513836Y977900D01*
X3467100Y977900D01*
X3503422Y977900D02*
G01*
X3539743Y920750D01*
X3626104Y1029715D02*
G01*
X3574034Y957071D01*
X3652011Y957071D01*
X3626104Y1029715D02*
G01*
X3626104Y920750D01*
G36*
X220675Y1515719D02*
G01*
X234696Y1502968D01*
X249174Y1490827D01*
X264210Y1479346D01*
X279755Y1468526D01*
X295706Y1458417D01*
X312115Y1448968D01*
X328930Y1440281D01*
X346049Y1432306D01*
X363524Y1425092D01*
X381304Y1418640D01*
X399389Y1412951D01*
X417626Y1408074D01*
X436118Y1404010D01*
X454761Y1400708D01*
X473506Y1398270D01*
X492353Y1396644D01*
X511251Y1395780D01*
X530148Y1395780D01*
X549046Y1396644D01*
X567893Y1398270D01*
X586638Y1400708D01*
X605282Y1404010D01*
X623773Y1408074D01*
X642010Y1412951D01*
X660095Y1418640D01*
X677875Y1425092D01*
X695350Y1432306D01*
X712470Y1440281D01*
X729284Y1448968D01*
X745693Y1458417D01*
X761644Y1468526D01*
X777189Y1479346D01*
X792226Y1490827D01*
X806704Y1502968D01*
X820724Y1515719D01*
G37*
D10*
X613389Y2072929D02*
G01*
X748009Y2072929D01*
X680699Y2010699D02*
G01*
X680699Y2135159D01*
D20*
X1092200Y4660900D02*
G01*
X901700Y4660900D01*
X901700Y4406900D01*
X1663700Y4406900D01*
X1663700Y4660900D01*
D21*
X1663700Y4660900D02*
G01*
X1092200Y4660900D01*
D10*
X1038707Y4027004D02*
G01*
X1038707Y1907001D01*
X1143701Y2426987D02*
G01*
X2183698Y2426987D01*
X2183698Y1907001D01*
X1143701Y1907001D01*
X1143701Y2426987D01*
X2288707Y1907001D02*
G01*
X2288707Y4027007D01*
X2288707Y1906998D02*
G01*
X1038707Y1906998D01*
X1038705Y4027004D02*
G01*
X2288705Y4027004D01*
X4731890Y1678812D02*
G01*
X4335909Y1678812D01*
X6255890Y1678812D02*
G01*
X5859909Y1678812D01*
X3271390Y1678812D02*
G01*
X2875409Y1678812D01*
D20*
X647700Y4660900D02*
G01*
X901700Y4660900D01*
X901700Y4152900D01*
X647700Y4152900D01*
X647700Y4343400D01*
D21*
X647700Y4660900D02*
G01*
X647700Y4343400D01*
D20*
X4787900Y1295400D02*
G01*
X4787900Y1041400D01*
X4279900Y1041400D01*
X4279900Y1295400D01*
X4470400Y1295400D01*
D21*
X4787900Y1295400D02*
G01*
X4470400Y1295400D01*
D20*
X6324600Y1282700D02*
G01*
X6324600Y1028700D01*
X5816600Y1028700D01*
X5816600Y1282700D01*
X6007100Y1282700D01*
D21*
X6324600Y1282700D02*
G01*
X6007100Y1282700D01*
D20*
X3327400Y1295400D02*
G01*
X3327400Y1041400D01*
X2819400Y1041400D01*
X2819400Y1295400D01*
X3009900Y1295400D01*
D21*
X3327400Y1295400D02*
G01*
X3009900Y1295400D01*
D20*
X330200Y3695700D02*
G01*
X584200Y3695700D01*
X584200Y3187700D01*
X330200Y3187700D01*
X330200Y3378200D01*
D21*
X330200Y3695700D02*
G01*
X330200Y3378200D01*
D20*
X330200Y2857500D02*
G01*
X584200Y2857500D01*
X584200Y2349500D01*
X330200Y2349500D01*
X330200Y2540000D01*
D21*
X330200Y2857500D02*
G01*
X330200Y2540000D01*
D10*
X2509520Y1991360D02*
G01*
X2748279Y1991360D01*
X2748279Y1991360D02*
G01*
X2748279Y1361439D01*
X2748279Y1361439D02*
G01*
X2509520Y1361439D01*
X2509520Y1361439D02*
G01*
X2509520Y1991360D01*
X3957320Y1991360D02*
G01*
X4196079Y1991360D01*
X4196079Y1991360D02*
G01*
X4196079Y1361439D01*
X4196079Y1361439D02*
G01*
X3957320Y1361439D01*
X3957320Y1361439D02*
G01*
X3957320Y1991360D01*
X5455920Y1978660D02*
G01*
X5694679Y1978660D01*
X5694679Y1978660D02*
G01*
X5694679Y1348739D01*
X5694679Y1348739D02*
G01*
X5455920Y1348739D01*
X5455920Y1348739D02*
G01*
X5455920Y1978660D01*
X4897120Y1991360D02*
G01*
X5135879Y1991360D01*
X5135879Y1991360D02*
G01*
X5135879Y1361439D01*
X5135879Y1361439D02*
G01*
X4897120Y1361439D01*
X4897120Y1361439D02*
G01*
X4897120Y1991360D01*
X6408420Y1978660D02*
G01*
X6647179Y1978660D01*
X6647179Y1978660D02*
G01*
X6647179Y1348739D01*
X6647179Y1348739D02*
G01*
X6408420Y1348739D01*
X6408420Y1348739D02*
G01*
X6408420Y1978660D01*
X3411220Y1991360D02*
G01*
X3649979Y1991360D01*
X3649979Y1991360D02*
G01*
X3649979Y1361439D01*
X3649979Y1361439D02*
G01*
X3411220Y1361439D01*
X3411220Y1361439D02*
G01*
X3411220Y1991360D01*
G75*
G01*
X920750Y1790446D02*
G03*
X920750Y1783334I-399984J-3556D01*
G75*
G01*
X4732020Y1678686D02*
G03*
X4335780Y1678686I-198120J149840D01*
G75*
G01*
X6256020Y1678686D02*
G03*
X5859780Y1678686I-198120J149840D01*
G75*
G01*
X3271520Y1678686D02*
G03*
X2875280Y1678686I-198120J149840D01*
M02*
