G04 Layer: TopLayer*
G04 EasyEDA v6.4.19.5, 2021-05-22T19:54:24+02:00*
G04 a9b393c6b906431c8adc5fb22f429070,c38686c9fe6447858fcbf2546f174441,10*
G04 Gerber Generator version 0.2*
G04 Scale: 100 percent, Rotated: No, Reflected: No *
G04 Dimensions in millimeters *
G04 leading zeros omitted , absolute positions ,4 integer and 5 decimal *
%FSLAX45Y45*%
%MOMM*%

%ADD10C,0.2540*%
%ADD11C,1.6000*%
%ADD12C,1.8000*%
%ADD14C,1.8796*%
%ADD17R,2.0000X2.0000*%
%ADD18C,2.0000*%
%ADD19C,0.9000*%

%LPD*%
D10*
X1536700Y2286012D02*
G01*
X1536700Y2743200D01*
X1612900Y2819400D01*
X3048000Y2819400D01*
X3060700Y2806700D01*
X3314700Y2806700D02*
G01*
X3314700Y2679700D01*
X3225800Y2616200D01*
X1879600Y2616200D01*
X1790700Y2540000D01*
X1790700Y2286000D01*
X2044700Y2032012D02*
G01*
X2235200Y2222512D01*
X2235200Y2413000D01*
X2324100Y2501900D01*
X3479800Y2501900D01*
X3568700Y2590800D01*
X3568700Y2806700D01*
X2628900Y1168400D02*
G01*
X2946400Y1168400D01*
X4076700Y1168400D02*
G01*
X4406900Y1168400D01*
X5575300Y1155700D02*
G01*
X5943600Y1155700D01*
X4660900Y1168400D02*
G01*
X4660900Y1828800D01*
X3200400Y1168400D02*
G01*
X3200400Y1828800D01*
X6184900Y1828800D02*
G01*
X6184900Y1168400D01*
X6197600Y1155700D01*
X457200Y2730500D02*
G01*
X304800Y2730500D01*
X139700Y2984500D01*
X127000Y4254500D01*
X673100Y4749800D01*
X5245100Y4749800D01*
X5346700Y4648200D01*
X5346700Y4330700D01*
X4076700Y4330700D02*
G01*
X4203700Y4203700D01*
X4203700Y2565400D01*
X4127500Y2489200D01*
X3644900Y2489200D01*
X3530600Y2374900D01*
X3276600Y2374900D01*
X3073400Y2171700D01*
X3073400Y1828800D01*
X4584700Y4330700D02*
G01*
X4457700Y4203700D01*
X4457700Y2095500D01*
X4533900Y2019300D01*
X4533900Y1828800D01*
X1282700Y4533900D02*
G01*
X1447800Y4699000D01*
X4711700Y4699000D01*
X4826000Y4584700D01*
X4826000Y4343400D01*
X4838700Y4330700D01*
X774700Y4533900D02*
G01*
X1003300Y4305300D01*
X1752600Y4305300D01*
X2057400Y4584700D01*
X3314700Y4584700D01*
X3568700Y4330700D01*
X1536700Y2032012D02*
G01*
X1409700Y2159012D01*
X1409700Y4089400D01*
X1498600Y4178300D01*
X1828800Y4178300D01*
X1981200Y4330700D01*
X3060700Y4330700D01*
D11*
G01*
X520700Y1615694D03*
G01*
X520700Y1965705D03*
D12*
G01*
X1536700Y4533900D03*
G01*
X1282700Y4533900D03*
G36*
X949960Y4623899D02*
G01*
X1107439Y4623899D01*
X1107439Y4443900D01*
X949960Y4443900D01*
G37*
D14*
G01*
X5854700Y4330700D03*
G01*
X5600700Y4330700D03*
G01*
X5346700Y4330700D03*
G01*
X5092700Y4330700D03*
G01*
X4838700Y4330700D03*
G01*
X4584700Y4330700D03*
G01*
X4330700Y4330700D03*
G01*
X4076700Y4330700D03*
G01*
X3822700Y4330700D03*
G01*
X3568700Y4330700D03*
G01*
X3314700Y4330700D03*
G01*
X3060700Y4330700D03*
G01*
X3060700Y2806700D03*
G01*
X3314700Y2806700D03*
G01*
X3568700Y2806700D03*
G01*
X3822700Y2806700D03*
G01*
X4076700Y2806700D03*
G01*
X4330700Y2806700D03*
G01*
X4584700Y2806700D03*
G01*
X4838700Y2806700D03*
G01*
X5092700Y2806700D03*
G01*
X5346700Y2806700D03*
G01*
X5600700Y2806700D03*
G01*
X5854700Y2806700D03*
G01*
X3680459Y3093720D03*
G01*
X3934459Y3093720D03*
G01*
X4980940Y3093720D03*
G01*
X4726940Y3093720D03*
G01*
X6108700Y4203700D03*
G01*
X6108700Y3949700D03*
G01*
X6108700Y3695700D03*
G01*
X6108700Y3441700D03*
G01*
X6108700Y3187700D03*
G01*
X6108700Y2933700D03*
G36*
X1192961Y2121999D02*
G01*
X1372961Y2121999D01*
X1372961Y1942000D01*
X1192961Y1942000D01*
G37*
D12*
G01*
X1282700Y2286000D03*
G01*
X1536700Y2032000D03*
G01*
X1536700Y2286000D03*
G01*
X1790700Y2032000D03*
G01*
X1790700Y2286000D03*
G01*
X2044700Y2032000D03*
G01*
X2044700Y2286000D03*
G36*
X4361901Y1908799D02*
G01*
X4451901Y1908799D01*
X4451901Y1748800D01*
X4361901Y1748800D01*
G37*
G36*
X5885901Y1908799D02*
G01*
X5975901Y1908799D01*
X5975901Y1748800D01*
X5885901Y1748800D01*
G37*
G36*
X2901401Y1908799D02*
G01*
X2991401Y1908799D01*
X2991401Y1748800D01*
X2901401Y1748800D01*
G37*
D17*
G01*
X774700Y4279900D03*
D18*
G01*
X774700Y4533900D03*
G36*
X4306900Y1268399D02*
G01*
X4506899Y1268399D01*
X4506899Y1068400D01*
X4306900Y1068400D01*
G37*
G01*
X4660900Y1168400D03*
G36*
X5843600Y1255699D02*
G01*
X6043599Y1255699D01*
X6043599Y1055700D01*
X5843600Y1055700D01*
G37*
G01*
X6197600Y1155700D03*
G36*
X2846400Y1268399D02*
G01*
X3046399Y1268399D01*
X3046399Y1068400D01*
X2846400Y1068400D01*
G37*
G01*
X3200400Y1168400D03*
D17*
G01*
X457200Y3314700D03*
D18*
G01*
X457200Y3568700D03*
D17*
G01*
X457200Y2476500D03*
D18*
G01*
X457200Y2730500D03*
D14*
G01*
X2628900Y2184400D03*
G01*
X2628900Y1168400D03*
G01*
X4076700Y2184400D03*
G01*
X4076700Y1168400D03*
G01*
X5575300Y2171700D03*
G01*
X5575300Y1155700D03*
G01*
X5016500Y2184400D03*
G01*
X5016500Y1168400D03*
G01*
X6527800Y2171700D03*
G01*
X6527800Y1155700D03*
G01*
X3530600Y2184400D03*
G01*
X3530600Y1168400D03*
D19*
X4660900Y1863798D02*
G01*
X4660900Y1793798D01*
X4533900Y1863798D02*
G01*
X4533900Y1793798D01*
X6184900Y1863798D02*
G01*
X6184900Y1793798D01*
X6057900Y1863798D02*
G01*
X6057900Y1793798D01*
X3200400Y1863798D02*
G01*
X3200400Y1793798D01*
X3073400Y1863798D02*
G01*
X3073400Y1793798D01*
M02*
